<?xml version="1.0" encoding="utf-8"?>
<!-- Generator: Adobe Illustrator 23.0.3, SVG Export Plug-In . SVG Version: 6.00 Build 0)  -->
<svg version="1.1" id="Layer_1" xmlns="http://www.w3.org/2000/svg" xmlns:xlink="http://www.w3.org/1999/xlink" x="0px" y="0px"
	 viewBox="0 0 1920 1080" style="enable-background:new 0 0 1920 1080;" xml:space="preserve">
<style type="text/css">
	.st0{fill:none;stroke:#00AA2B;stroke-width:7;stroke-miterlimit:10;}
	.st1{opacity:0.67;}
	.st2{fill:none;stroke:#00FF00;stroke-width:2;stroke-miterlimit:10;}
	.st3{fill:#00FF00;}
	.st4{fill:none;stroke:#00FF00;stroke-width:7;stroke-miterlimit:10;}
	.st5{fill:none;stroke:#00FF00;stroke-width:10;stroke-miterlimit:10;}
</style>
<path class="st0" d="M599.4,293.1l2.6-8.8l-21.1-57.2L569.5,213l-14.1-7.9l7.9-11.4l-7.9-7.9v-6.2h7l8.8-2.6l18.5,3.5l9.7-3.5l0.9-7
	l7.9-7.9l8.8,1.8v5.3l15,10.6l5.3-3.5l7,4.4l1.8,11.4l66,11.4l17.6,29l-3.5,12.3l1.8,11.4l-5.3,7.9l-1.8,7.9l22,9.7l4.4-2.6
	c4.4,2.6,4.4,2.6,4.4,2.6l4.4-2.6l6.2-0.9l6.2,7.9l19.3,7v9.7l15,7l-3.5,3.5c0,0,3.5,6.2,3.5,5.3s7.9-2.6,7.9-2.6l5.3-6.2l16.7,2.6
	l1.8,8.8c-3.5,3.5-4.4,5.3-4.4,5.3s3.5,8.8,4.4,9.7s10.6,0,10.6,0l17.6,7l16.7-14.1l11.4,2.6l2.6-4.4l31.7-17.6l2.6,8.8
	c0,0,17.6,5.3,16.7,6.2s0,37.8,0,37.8l26.4,12.3v5.3c2.6,2.6,3.5,4.4,3.5,4.4l17.6-13.2l3.5-10.6l7.9,1.8l7-5.3l22.9,15.8l10.6-1.8
	l7,6.2l3.5-6.2h12.3l41.3,18.5h7.9l6.2,10.6l7.9,0.9l21.1,13.2h7.9l4.4-7.9l11.4,4.4l14.1-4.4v-7.9l6.2,2.6l0.9-6.2l16.7-1.8
	l11.4-16.7l3.5,31.7l16.7,12.3h19.3l3.5,7l14.9,4.4l2.6-7.9l10.6-7.9l19.3-3.5l16.7,12.3l18.5-4.4l0.9-7.9l10.6,7.9l10.6-2.6
	l2.6-9.7l9.7,6.2l5.3-1.8v-5.3h7l6.2,12.3l13.2,5.3l1.8,7h7.9v-7l12.3-8.8l0.9-27.3l10.6-0.9l10.6,7l15.8,35.2l-93.2,77.4l-2.6,25.5
	l35.2,40.5h9.7l7.9,13.2l-9.7,37.8l-12.3-6.2l-15.8,6.2l-20.2,22l-2.6,8.8l7,12.3l-1.8,16.7l-25.5,8.8L1326,681l-20.2-2.6l-14.9,15
	l-15.8,0.9l-12.3,15.8l-4.4,11.4l-19.3,7l-3.5,23.8l-15.8,25.5l-6.2,51l-7-0.9l-15.8-4.4l4.4,20.2l-9.7,6.2l-13.2-11.4l-19.3-3.5
	l-19.3,14.1l-10.6-7.9l-17.6,10.6l-15.8,42.2l-12.3-18.5l-15.8-4.4v-18.5l-37.8-17.6l-0.9-17.6l-15-15.8l-28.2,7.9l-8.8-20.2
	l-19.3,6.2l-0.9-11.4l-14.1,2.6l-0.9,16.7l-8.8,12.3l5.3,9.7l-8.8,15l-9.7-12.3l-4.4,11.4l-15,13.2l-8.8-3.5l-17.6,6.2l-15-3.5
	l-6.2,12.3l-16.7-7l-0.9,15l-20.2,7.9l-7.9-15l-8.8,13.2l-19.3,7.9l-8.8-15.8l-17.6-15l-21.1,7l-6.2,26.4l-7-9.7l-20.2,6.2
	l-11.4,18.5l-18.5-13.2l-16.7-18.5l0.9-22.9l-24.6-5.3l-13.2,14.1l-11.4-7l-5.3-20.2l-12.3,11.4l-38.7,16.7l-36.9,7l-15-15.8l7-14.1
	l-5.3-21.1l-23.8-28.2c0.9-0.9-22-54.5-22-54.5l9.7-41.3l15.8-15l67.7-26.4l22-29l36.9-20.2l6.2-8.8l0.9-6.2l8.8-7.9l60.7,5.3
	l14.1,7.9l21.1-10.6l3.5-10.6l-52.8-41.3l-35.2-11.4L598.6,483l-3.5-15.8l7-6.2h7.9l16.7-6.2l0.9-25.5l-11.4-6.2l-7.9,1.8
	l-33.4-15.8l-3.5-17.6l15-4.4l3.5,3.5H603l6.2-22l14.1,0.9l13.2,3.5l36.9,0.9v-17.6l-24.6-15l-7-10.6l-0.9-17.6l-3.5-3.5l-12.3,7.9
	h-6.2L603,308L599.4,293.1z"/>
<g>
	
		<image style="overflow:visible;enable-background:new    ;" width="1108" height="818" xlink:href="CA2112AC.png"  transform="matrix(1 0 0 1 405 124)">
	</image>
</g>
<g class="st1">
	
		<image style="overflow:visible;enable-background:new    ;" width="207" height="208" xlink:href="CA2112AD.png"  transform="matrix(1 0 0 1 844 517)">
	</image>
</g>
<path class="st2" d="M928.6,649.7c0,0-9.5-2.7-9.5-8.2s9.9-49.3,9.9-50s2.4-5.8,8.8-6.5l0.7-1l2-1v-3.4l14.3-0.3v4.1
	c0,0,11.6,3.7,12.6,9.2s8.8,44.6,8.8,44.6s-0.7,10.5-9.5,12.6S941.9,656.2,928.6,649.7z"/>
<path class="st2" d="M937.9,584.9c0,0-1.8,2.9-0.7,3.2s21.6,0,21.6,0s0.7-2.5-0.7-3.2C956.6,584.2,937.9,584.9,937.9,584.9z"/>
<path class="st2" d="M936.8,589.5c0,0-1.7,4.1,1.4,4.4s19.1,0,19.1,0s3.7-2,2.4-3.4s-1.4-1-1.4-1L936.8,589.5L936.8,589.5z"/>
<path class="st2" d="M936.3,590c0,0-3.1,1.4-4.4,6.5c-1.4,5.1-5.8,30.3-5.8,30.3s-2.7,12.6-2,14.6s5.8,6.1,5.8,6.1l6.1,1.7
	c0,0,0.3-1.4-0.7-2.4s-8.2-5.1-8.5-6.1c-0.3-1,0-4.8,0-4.8l-1.7-2.4c0,0,4.1,5.1,5.1,5.5c1,0.3,0-0.3,0-0.3l2-15
	c0,0,3.4-23.5,5.5-24.2c2-0.7,1.4-0.7,1.4-0.7l0.1-4.9l17.6-0.1l0,5.3l-17.7-0.3l17.7,0.3c0,0,2-0.7,3.4,7.5
	c1.4,8.2,5.5,29.6,5.5,29.6s-6.5,8.5-11.9,7.2c-5.5-1.4-15.7,3.4-23.5-4.4"/>
<path class="st2" d="M960.1,591c0,0,2.7,2.4,2.7,5.1c0,0,8.2,38.1,8.2,39.1s-1.4,16-12.6,13.3c0,0-2.4,0,0-1.7s7.8-6.1,8.5-7.2
	s1.4-3.1,1-3.7c-0.3-0.7,0-0.3,0-0.3l3.1-2.7l-4.8,3.4"/>
<path class="st2" d="M933.6,619.3c0,0,17.3,6.6,26.4,21.9"/>
<path class="st2" d="M934.9,615.2c-1.4-0.7,21.8,11.2,28.1,23.5"/>
<g>
	<path class="st2" d="M932.2,640c0,0,24.6-24.5,29.8-22.6"/>
</g>
<line class="st2" x1="935.9" y1="649.2" x2="958.4" y2="648.9"/>
<path class="st2" d="M928.5,650.3v5.8c0,0,15.7,7.8,38.5,1v-7.5"/>
<path class="st2" d="M966.9,657.1c0,0,5.8,2.4,6.1,3.7s-21.4,14-51.7,0.7c0,0,4.4-5.8,7.2-5.5"/>
<g>
	<g>
		<path class="st3" d="M942.2,648.3c0-1.2,0.6-1.9,1.5-2.7c1.4-1.3-0.7-3.4-2.1-2.1c-1.5,1.3-2.3,2.8-2.3,4.8
			C939.2,650.3,942.2,650.3,942.2,648.3L942.2,648.3z"/>
	</g>
</g>
<g>
	<g>
		<path class="st3" d="M949.9,642.5c-0.4,0.5-0.6,0.9-0.4,1.6c0.2,0.7,0.7,0.7,1,1.2c0.2,0.3,0.5,0.9,0.7,1.2
			c0.2,0.5,0.2,1.1,0.3,1.7c1-0.3,1.9-0.5,2.9-0.8c0,0,0-0.1,0-0.1c-0.6-1.8-3.5-1.1-2.9,0.8c0,0,0,0.1,0,0.1
			c0.6,1.8,3.4,1.1,2.9-0.8c-0.1-0.5-0.1-1-0.3-1.5c-0.1-0.5-0.4-0.9-0.7-1.3c-0.5-0.9-0.8-1.7-1.8-2.2c0.2,0.3,0.5,0.6,0.7,0.9
			c0,0,0,0,0-0.1c-0.1,0.5-0.3,1-0.4,1.5c0,0,0,0,0,0c0.5-0.6,0.6-1.5,0-2.1C951.5,642,950.4,641.9,949.9,642.5L949.9,642.5z"/>
	</g>
</g>
<g>
	<g>
		<path class="st3" d="M943.9,580.6c0.3,1.2,0.2,2.4,0.1,3.6c1,0,2,0,3,0c0,0,0-0.1,0-0.2c-0.1,0.3-0.1,0.5-0.2,0.8
			c0,0,0-0.1,0.1-0.1c0.3-0.7,0.2-1.6-0.5-2c-0.7-0.4-1.7-0.2-2,0.5c-0.2,0.3-0.3,0.7-0.3,1c0,1.9,2.9,1.9,3,0
			c0.1-1.5,0.1-2.9-0.2-4.4C946.4,577.9,943.5,578.7,943.9,580.6L943.9,580.6z"/>
	</g>
</g>
<g>
	<g>
		<path class="st3" d="M948.2,580.1c0,1.3-0.1,2.6-0.1,3.9c0,0.7,0.6,1.4,1.3,1.5c0.8,0.1,1.4-0.4,1.7-1.1c0.1-0.4,0.1-0.7,0-1.1
			c-0.6-1.8-3.5-1-2.9,0.8c0,0,0,0.1,0,0.1c0-0.3,0-0.5,0-0.8c0,0,0,0.1,0,0.1c1,0.1,2,0.3,3,0.4c0-1.3,0.1-2.6,0.1-3.9
			C951.3,578.2,948.3,578.2,948.2,580.1L948.2,580.1z"/>
	</g>
</g>
<g>
	<g>
		<path class="st3" d="M940.3,580.6C940.3,580.6,940.3,580.7,940.3,580.6c0.4-0.6,0.7-1.4,1-2.1c-0.9,0.1-1.7,0-2.6,0.3
			c0.6,0.7,1.1,1.5,1.7,2.2c3.2-5.5,10.8-5.3,14.6-0.4c0.4-0.8,0.9-1.5,1.3-2.3c0.1,0.2,0.3,0.4,0.4,0.6c-0.3-1.9-3.2-1.1-2.9,0.8
			c0.2,1.3,1.4,1.5,2.5,1.6c1.1,0.1,2-1.4,1.3-2.3c-5.1-6.7-15.4-7.2-19.8,0.4c-0.6,1.1,0.4,2.6,1.7,2.2c1-0.3,1.7-0.2,2.6-0.3
			c1-0.2,1.4-1.5,0.9-2.2c0,0,0-0.1-0.1-0.1C941.9,577.4,939.3,578.9,940.3,580.6L940.3,580.6z"/>
	</g>
</g>
<circle class="st2" cx="947.3" cy="571.8" r="2.9"/>
<path class="st2" d="M944.8,643.5"/>
<g>
	<g>
		<path class="st3" d="M953.6,649c0.1,0,0.1,0,0.2,0c0.5,0,1-0.3,1.1-0.8c0.5-1.9-1.1-3.6-2.1-5c-0.4,0.5-0.8,1.1-1.3,1.7
			c0,0,0,0,0,0c0.7,0.1,1.4-0.3,1.4-1.1c0-2.1,1.1-4.2,1.2-6.2c0.1-2-1.2-3.8-2.4-5.4c-0.6-0.7-1.6-0.2-1.9,0.5
			c-0.3,0.9-0.7,1.8-1,2.7c0.7,0.2,1.5,0.4,2.2,0.6c0.7-1.9-0.9-7.8-3.7-6.7c-2.4,1-2.6,6-2.6,8.2c0,1.5,2.3,1.5,2.3,0
			c0-1.2-0.8-3.3-2.2-3.6c-0.4-0.1-0.8,0-1.1,0.3c-1.3,1.5-2,3-1.7,5c0.2,1.4,1.7,3.1,1.7,4.3c0.8,0,1.5,0,2.3,0c0-0.2,0-0.5,0-0.7
			c0-1.5-2.3-1.5-2.3,0c0,0.2,0,0.5,0,0.7c0,1.5,2.2,1.5,2.3,0c0-0.7-0.4-1.2-0.6-1.8c-0.3-0.7-0.7-1.3-0.9-2
			c-0.1-0.6,0.3-3.2,0.3-2.2c0,1.5,2.3,1.5,2.3,0s0.4-2.8,0.6-4.2c0-0.4,0.4-0.9,0.4-1.3c0-0.1-1-1.7-0.4-0.8
			c0.8,1.1,1.8,2.8,1.3,4.2c-0.5,1.4,1.7,1.9,2.2,0.6c0.3-0.9,0.7-1.8,1-2.7c-0.6,0.2-1.3,0.3-1.9,0.5c2.8,3.7,0.5,6,0.6,10
			c0.5-0.4,1-0.7,1.4-1.1c0,0,0,0,0,0c-0.9-0.2-1.9,0.8-1.3,1.7c0.5,0.7,2.1,2.3,1.8,3.3c0.4-0.3,0.7-0.5,1.1-0.8
			c-0.1,0-0.1,0-0.2,0C952.1,646.8,952.1,649,953.6,649L953.6,649z"/>
	</g>
</g>
<path class="st4" d="M973.2,562.2"/>
<g>
	<g>
		<path class="st3" d="M629.5,433.1c5.1-3.9,10.5-8.1,16.9-9.7c9.1-2.2,16.6,1.9,19.7,10.6c3.6,10.3,4.7,21.1,9.7,31
			c4.6,9,11.7,16.4,21.4,19.7c11.8,4,24.6,2,36.8,2.5c12.2,0.4,24.3,3.8,34.6,10.3c10.8,6.9,16.2,16.2,21.8,27.3
			c4.5,9,10.4,14.1,20.7,15c4.9,0.4,10.9-0.2,15.2,2.8c5.7,4,4,11.7,5.2,17.7c2.3,11.5,13.5,12.5,23.3,12.2
			c15.9-0.5,30.9,2.5,44.9,10.2c1.7,0.9,3.2-1.7,1.5-2.6c-11.4-6.2-23.9-10-36.9-10.6c-5.9-0.3-11.8,0.5-17.6-0.1
			c-8.3-0.8-12-5.5-12.7-13.7c-0.4-4.4-0.4-9-3-12.7c-2.5-3.5-6.5-4.9-10.7-5.5c-5-0.7-10.3-0.2-15.2-1.7c-6.5-2-9.8-8-12.7-13.8
			c-5-10.2-10.4-18.8-19.8-25.5c-9.1-6.5-19.9-10.3-31-11.8c-13.4-1.8-27.3,1.3-40.4-2.1c-13-3.3-20.8-13.4-25.4-25.5
			c-2.4-6.4-3.8-13-5.5-19.6c-1.3-5.2-3.1-10.7-7.5-14.2c-11.2-9.1-25.4-0.1-34.7,7C626.5,431.7,628,434.3,629.5,433.1L629.5,433.1z
			"/>
	</g>
</g>
<g>
	<g>
		<path class="st3" d="M682.4,371.2c7.8-3.3,16.9-2,23.7,2.9c9,6.3,9.8,16.4,9.6,26.5c-0.3,12.9,1,32,18.3,32.9
			c9.8,0.5,20-2.7,29.7-4.1c9.9-1.4,23.8-3.2,32.1,3.7c4.3,3.5,5.2,8.8,4.9,14c-0.3,4.2-2.2,8.9-1.8,13.1c0.6,7.1,10.2,4,14.3,2.9
			c10.5-2.6,26-6.9,33,4.4c5.4,8.7,0.8,20.2-4.3,27.9c-0.4,0.6-0.1,1.6,0.5,2c4.7,2.5,9.7,1.7,14.8,1.7c4,0,7.1,0.6,8.4,4.8
			c0.8,2.4,0.9,4.7,2.6,6.7c6.6,8.3,19.9,5.7,26.2,15c10.1,15,1.9,39.4,19.5,50c1.6,1,3.1-1.5,1.5-2.5
			c-17.6-10.6-7.6-37.5-20.4-51.6c-3-3.3-6.9-5.1-11.1-6.5c-3-1-6.2-1.7-9.1-3.1c-3.7-1.8-5-4.2-6.1-8.1
			c-3.3-12.2-16.3-4.5-24.7-8.9c0.2,0.7,0.4,1.3,0.5,2c8-11.8,12-32.3-5.2-38.3c-9.5-3.4-19.3,0-28.5,2.2c-3.8,0.9-8.3,3.1-8.5-3.4
			c0-2,0.8-4.3,1.1-6.2c0.6-4.3,0.9-8.8-0.5-13c-6.6-19-36.6-12-51.1-9.5c-5.7,1-11.8,2.5-17.6,2.1c-6.8-0.4-11.3-4.9-13.6-11
			c-3.5-9.6-0.8-19.9-2.1-29.9c-2.3-17.2-21-28-37.4-21C679.1,369.5,680.6,372,682.4,371.2L682.4,371.2z"/>
	</g>
</g>
<g>
	<g>
		<path class="st3" d="M645.3,376.9c11.7,5.5,16.7,17.7,20.4,29.3c2.9,9,4.5,22.7,13.4,28c5.2,3.1,10.9,1.2,16.3-0.3
			c8.3-2.3,16.8-3.3,25.3-3.1c8.2,0.2,18,0.9,24.3,6.8c3.2,3,5.2,7.1,4.8,11.5c-0.3,3.2-2.1,6-2.3,9.2c-0.4,5.2,3.5,6.7,7.8,8
			c7.6,2.2,15.5,4.4,22,9.2c3.1,2.3,5.9,5.2,7.7,8.6c2.1,3.8,2.2,7.4,2.7,11.5c0.5,4.2,2.6,7.5,6.5,9.4c4.3,2.1,9.2,2.3,13.8,3.5
			c7,1.8,10.4,5.9,12.5,12.7c3.1,10.3,5.2,19.5,16.8,22.6c6.9,1.8,14.1,1.7,21,3.5c7.3,1.9,14.2,5.2,20.4,9.5
			c6.5,4.5,12.1,10.3,16.5,16.9c2.9,4.4,5,10.8,11.2,10.8c1.9,0,1.9-3,0-3c-4.1,0-6-5.3-7.8-8.1c-1.5-2.4-3.2-4.7-5-6.9
			c-3.9-4.7-8.4-8.8-13.4-12.3c-10-7-21.2-10.5-33.2-11.9c-7-0.8-15-1.7-19.1-8.3c-3.2-5-3.6-11.3-5.7-16.7
			c-3.9-10.2-12.2-11.2-21.7-13.4c-2.5-0.6-5.2-1.2-7.2-2.9c-3.1-2.7-2.7-6.8-3.2-10.5c-0.7-5.2-3.3-9.8-6.8-13.5
			c-4.3-4.5-9.8-7.5-15.5-9.8c-3.3-1.3-6.8-2.3-10.2-3.3c-0.8-0.2-1.8-0.4-2.6-0.8c-1.1-0.5-4.5-2.9-4.8-4.2
			c-0.4-1.5,1.1-4.3,1.5-5.7c3.7-11.7-5.5-20.8-16.2-23.6c-13.8-3.6-29.3-1.9-42.9,2c-4.7,1.3-9.7,2.6-13.7-0.9
			c-3.2-2.8-4.9-6.9-6.2-10.8c-2-6.1-3.7-12.3-5.8-18.3c-3.9-11-9.5-21.9-20.5-27.1C645.1,373.4,643.5,376,645.3,376.9L645.3,376.9z
			"/>
	</g>
</g>
<g>
	<g>
		<path class="st3" d="M613.2,486c-4.9,7.2,1.6,16,9.5,17c13.7,1.7,20.8-11.9,32.6-15.4c13.8-4.1,18.1,16.6,25.6,23.6
			c9.1,8.7,21.1,3.5,30.6-1.4c10.4-5.4,26-11.9,36.3-2.7c7,6.3,8,16.9,15.4,22.8c3.2,2.5,7,3.5,11.1,3c8.1-0.9,14.5-4.7,22.7-1.7
			c5.8,2.1,10.8,5.9,16.2,8.9c6.1,3.4,12.7,5.8,19.5,7.2c7,1.4,13.9,1.2,21,1.2c8,0,14.1,1.4,18,8.9c1.3,2.5,2.5,4.8,4.9,6.4
			c3.1,2.1,7,2.9,10.4,4.4c7.2,3.4,13.4,8.4,18.5,14.4c1.2,1.4,3.3-0.6,2.1-2.1c-3.9-4.6-8.4-8.6-13.5-11.8
			c-2.3-1.4-4.7-2.7-7.1-3.7c-4.1-1.8-8.8-2.6-11.4-6.5c-2.5-3.9-3.5-7.8-7.9-10.3c-4.2-2.3-9.3-2.6-13.9-2.6
			c-14.3-0.1-27-1.2-39.7-8.4c-10-5.7-18.8-12.3-30.9-9.4c-6.4,1.5-13.1,4.3-18.7-0.7c-3.6-3.2-5.5-8.1-7.7-12.2
			c-4.2-8-9.7-14.3-19.4-15.1c-11-1-20.8,4.3-30.3,9c-6.4,3.1-14.4,6.4-21.2,2.6c-5.5-3.1-8.1-9.4-11.1-14.6
			c-5.4-9.4-14-15.9-24.7-10c-6.1,3.4-10.9,8.6-17.2,11.5c-4.6,2.1-10.9,3.2-15.1-0.4c-3.1-2.7-4.3-7-1.9-10.4
			C616.8,485.9,614.3,484.5,613.2,486L613.2,486z"/>
	</g>
</g>
<g>
	<g>
		<path class="st3" d="M701.6,556c-0.3,6.3,5.2,11.1,11.4,11.8c8.9,1.1,18.2-4.9,25.6-8.9c8.9-4.9,17.5-10.4,25.6-16.5
			c8.3-6.2,15.7-13.4,24.2-19.2c8.2-5.7,17.8-10,28.1-9.4c11.4,0.7,19.1,8.1,22.8,18.2c1.4,3.9,2.3,8,3,12.1
			c0.5,3.4,0.7,7.1,3.6,9.5c2.6,2.1,6,2.1,9.1,2.9c4.8,1.3,7.1,4.5,8.4,9c2.2,7.8,2.2,15.9,8.3,22c6.1,6.2,15.4,9.1,23.5,11.8
			c1.8,0.6,2.5-2.1,0.8-2.7c-7.9-2.6-17-5.4-22.7-11.5c-5.6-6-5.1-14.2-7.5-21.4c-2-5.9-5.7-9.1-12-10.3c-2.3-0.4-4.5-0.7-6.2-2.4
			c-1.9-1.9-2-4.5-2.4-7c-0.6-4.1-1.5-8.2-2.8-12.2c-5-14.7-17.7-22.9-33.7-20.5c-18,2.7-30.7,16.9-44.3,27.4
			c-9,6.9-18.6,13.1-28.6,18.5c-5.2,2.8-10.6,6-16.4,7.3c-6.3,1.5-15.1-0.9-14.8-8.6C704.6,554.2,701.7,554.2,701.6,556L701.6,556z"
			/>
	</g>
</g>
<g>
	<g>
		<path class="st3" d="M704.3,586.2c2.2,9.5,5.1,18.9,8.9,27.9c2.4,5.8,5.7,11.6,10.5,15.6c4.3,3.6,9.7,5.3,15.2,3.7
			c5.8-1.7,10.1-6.3,15-9.6c15.3-10.2,23.7,9.5,37.8,11.9c6.4,1,12.6-1.1,18.4-3.6c4-1.7,7.9-3.6,12-5c4.6-1.6,9.3-2.2,14.1-2.7
			c9.7-1.1,17.5-5.5,25.9-10.1c10-5.5,19.9-10.9,29.8-16.4c1.7-0.9,0.2-3.5-1.5-2.6c-8,4.4-15.9,8.7-23.9,13.1
			c-7.5,4.1-15.2,9.3-23.5,11.7c-8,2.3-16.1,1.9-23.9,4.9c-6.4,2.5-12.6,6.1-19.5,7.5c-8.6,1.7-14.7-2.3-21.1-7.4
			c-4.1-3.2-8.4-6.7-13.7-7.4c-12.6-1.7-18.8,13.8-30.8,13.3c-8.6-0.3-14.1-9.2-17.3-16.2c-4.3-9.3-7.2-19.5-9.6-29.4
			C706.8,583.5,703.9,584.3,704.3,586.2L704.3,586.2z"/>
	</g>
</g>
<g>
	<g>
		<path class="st3" d="M662.7,590.5c0.4,14.4,2,28.7,4.9,42.7c2.2,10.7,3.7,23.1,14.9,27.9c5.8,2.5,12.4,3.7,18.5,5.4
			c7.6,2.1,15.2,4.1,22.8,6.2c12.1,3.3,32.6,6.1,35,21.5c0.8,5.2-2.6,9.8-2,14.9c0.6,4.6,4.4,6.1,8.4,7c10.1,2.2,20.7,1.4,30.5-1.8
			c9.8-3.2,18.9-8.7,26-16.1c7.9-8.3,12.3-18.7,16.2-29.3c4.9-13.2,10.3-28.4,23.2-36c8-4.7,21.5-3.7,25-14c0.6-1.8-2.3-2.6-2.9-0.8
			c-1.7,5.1-7.2,6.5-11.8,7.8c-4.6,1.3-9,2.5-13,5.2c-8.3,5.4-13.8,14.1-17.8,23c-4.8,10.8-7.7,22.3-13.8,32.5
			c-5.4,9.1-13.5,16.3-23,21.2c-9.5,4.9-20.5,7.2-31.2,6.4c-2.6-0.2-5.5-0.5-8.1-1.3c-4.3-1.3-5.4-3.4-4.4-8c1.1-5,2.5-9.1,0.8-14.2
			c-3.1-9-11.9-13.7-20.5-16.4c-12.7-4.1-25.9-7.1-38.8-10.6c-6.7-1.8-14.7-2.9-20.8-6.5c-6.5-4-7.8-12.2-9.3-19
			c-3.6-15.6-5.5-31.6-6-47.6C665.6,588.6,662.6,588.6,662.7,590.5L662.7,590.5z"/>
	</g>
</g>
<g>
	<g>
		<path class="st3" d="M614.3,582.9c8.7,16.9,14.1,35.4,15.9,54.4c0.8,9.2,0.9,18.4,0,27.5c-0.8,8.7-4.4,18.3-3.3,27.1
			c1.7,12.8,15.9,17.4,26.9,19c7.7,1.1,16,1.5,22.9,5.3c8,4.4,9.9,12.3,9.8,20.8c-0.1,12.5-2.4,27.6,11.5,33.7
			c6.9,3,14.5,2.6,21.8,1.6c4.9-0.7,9.9-1.6,14.9-1.5c4.7,0.1,9.6,1.8,14.4,1c6.2-1,10.4-5.9,14-10.7c5.3-6.8,11-13.2,17.5-18.9
			c6.6-5.7,13.9-10.6,21.7-14.7c7.5-3.9,15.7-6.6,23.1-10.7c17.7-9.7,24.8-30.5,33.6-47.5c4.3-8.3,8.5-18.9,16.9-24
			c4.7-2.9,14-2,14.7-9.1c0.2-1.9-2.8-1.9-3,0c-0.4,3.5-6.6,3.8-9.2,4.6c-2.8,1-5.4,2.5-7.7,4.5c-5.2,4.7-8.5,11.1-11.7,17.2
			c-4.3,8.3-8.7,16.7-13,25c-4.3,8.2-8.4,16.6-15.8,22.4c-6.2,4.8-13.7,7.7-20.8,10.8c-7.4,3.2-14.5,7-21.1,11.6
			c-6.3,4.4-12.2,9.3-17.5,14.8c-5.1,5.3-9.1,11.6-14.3,16.9c-7.5,7.6-17.2,3-26.6,3.8c-8.5,0.7-17,3.2-25.5,1.5
			c-20-3.8-13.7-23.5-15.1-38c-1.3-13.2-10.9-19.6-23.2-22c-11.8-2.3-32-1.6-36-16.3c-1.6-5.8,0.7-12.1,1.6-17.8
			c0.7-4.4,1.2-8.8,1.6-13.2c0.7-9.5,0.5-19-0.6-28.4c-2.1-18.3-7.5-36-15.9-52.4C616.1,579.6,613.5,581.2,614.3,582.9L614.3,582.9z
			"/>
	</g>
</g>
<g>
	<g>
		<path class="st3" d="M548.7,652.9c8.2-4,17.3-0.3,23.3,5.9c6.6,6.9,8.6,16.5,9.1,25.8c0.6,10.7-4.5,33.5,10.4,36.8
			c7,1.6,14.4-2.5,21.2-0.1c7.6,2.7,8.2,12.2,9.4,18.9c1.1,5.9,2.8,11.4,7,15.8c5.2,5.5,12.5,8.5,18,13.6c5.7,5.3,7.9,13.4,14,18.4
			c5.7,4.7,13.3,6.2,20.4,7.4c17.6,2.9,35.4,4.5,53.1,1.5c33.7-5.7,63.7-24.9,87.4-48.9c14-14.1,26.1-30,37.1-46.5
			c11.7-17.5,20.4-39.6,42.3-46c1.8-0.5,1.1-3.4-0.8-2.9c-7.7,2.3-14.8,6.2-20.4,12c-5.9,6.1-9.9,13.6-14.3,20.7
			c-9.9,15.9-20.5,31.5-32.6,45.9c-23.1,27.4-52.4,50.7-87.5,60.2c-19.2,5.2-38.4,4.9-57.9,2c-8.7-1.3-19.3-2.2-26-8.6
			c-5.7-5.5-8.1-13.5-14.3-18.6c-5.5-4.6-12.6-7.6-17.3-13.3c-4.9-5.9-5-13.8-6.7-20.9c-1.2-5-3.2-10-8-12.6
			c-6-3.3-12.8-0.9-19.1-0.6c-14.2,0.6-12.4-14.8-12.3-24.6c0.1-9.3-0.2-18.8-3.7-27.5c-5.1-12.6-19.9-22.8-33.3-16.3
			C545.5,651.1,547,653.7,548.7,652.9L548.7,652.9z"/>
	</g>
</g>
<g>
	<g>
		<path class="st3" d="M457.1,741c2-8.1,6.9-15.2,14-19.7c3.2-2,7.9-4.5,11.8-4.3c5.4,0.3,8.4,7.3,11.3,11.1
			c5,6.6,10.7,12.7,17,18.1c4.4,3.8,9.3,8.2,15.4,5.8c3-1.2,5.3-3.6,7.8-5.5c4.2-3.2,8.8-4.4,14.1-3.6c9,1.5,16.9,7.2,24.2,12.4
			c15.7,11.3,32,21.6,48.9,31c16.2,9,33.1,18.9,51.7,21.5c16.7,2.3,34.2,0.1,50.3-4.5c33.9-9.5,63.3-30.1,89-53.6
			c15.7-14.3,30.2-29.7,44.8-45c13.7-14.4,31.5-35,53.8-26.8c1.8,0.7,2.6-2.2,0.8-2.9c-16-5.9-31.7,3-43.3,13.8
			c-14.2,13.3-26.9,28.2-40.6,41.9c-27.2,27.2-57.5,52.8-94.1,66.1c-17.5,6.4-36.3,9.9-55,8.6c-21-1.5-39.7-12.5-57.7-22.6
			c-17.4-9.8-33.9-20.7-50.1-32.2c-6.7-4.7-14.2-9.5-22.4-10.8c-7.1-1.1-12.6,1.2-18.1,5.6c-1.8,1.5-4.1,3.6-6.6,4.1
			c-3.8,0.7-7-2.2-9.7-4.5c-3.9-3.3-7.5-6.8-11-10.5c-3.7-4-7.2-8.4-10.3-12.9c-1.9-2.7-3.8-5.8-7-7.2c-6.4-2.6-14.9,2.3-19.8,6.2
			c-6.2,4.9-10.4,11.7-12.4,19.3C453.8,742.1,456.7,742.9,457.1,741L457.1,741z"/>
	</g>
</g>
<g>
	<g>
		<path class="st3" d="M713.5,575.4c1.7,12.9,14.8,20.3,27,20c18.6-0.5,33.3-14.4,51.2-17.8c10.9-2.1,19,2,28.6,6.4
			c3,1.4,6.2,2.6,9.5,3.1c4.4,0.6,8.5-0.7,12.9-0.6c9.5,0.1,18.4,6.8,27.3,9.5c8.7,2.6,17.7,3.8,26.8,3.7c1.9,0,1.9-3,0-3
			c-9.4,0.1-18.7-1.2-27.7-4.1c-7.7-2.5-14.7-7.3-22.7-8.7c-3.5-0.6-6.8-0.1-10.3,0.3c-5.2,0.5-9.7-0.6-14.3-2.7
			c-6.1-2.8-11.8-6.3-18.5-7.2c-16.9-2.3-31.5,8.4-46.4,14.3c-7.6,3-15.9,5.1-24,3c-7.9-2-15.3-7.6-16.4-16.1
			C716.3,573.5,713.3,573.5,713.5,575.4L713.5,575.4z"/>
	</g>
</g>
<g>
	<g>
		<path class="st3" d="M672,372.3c4.4,0.9,9.4,2.8,14,2.8c2.4,0,4.7-1,4.8-3.7c0.1-1.9-2.9-1.9-3,0c-0.1,1.8-13.5-1.7-15-2
			C670.9,369,670.1,371.9,672,372.3L672,372.3z"/>
	</g>
</g>
<g>
	<g>
		<path class="st3" d="M667.5,353.8c13.9-4.6,28.2-7.8,42.7-9.4c13.2-1.4,27.9-2.6,40.9,0.4c13.2,3.1,19.5,13.4,25.1,24.7
			c5.1,10.4,10.4,20.7,17.5,29.8c6.3,8.1,14,15.1,23.4,19.6c11.7,5.6,25.5,7.3,35.5,16c4.9,4.3,8.1,9.8,8.4,16.4
			c0.2,6.4-2,12.7-3,19c-1.7,10.8,1.7,19.4,8.8,27.6c4.4,5.1,9.3,9.6,13.7,14.6c4.6,5.4,8.7,11.2,12.5,17.1
			c7.7,12.3,13.8,25.4,20,38.5c0.4,0.9,1.7,0.9,2.3,0.3c2.5-2.5,3.2-5.4,2.4-8.8c-0.5-1.8-3.3-1-2.8,0.8c0.8,2.3,0.2,4.3-1.6,5.9
			c0.8,0.1,1.5,0.2,2.3,0.3c-11-23.6-22.6-46-41-64.8c-4.2-4.3-8.5-8.7-11.3-14.1c-3.7-7-3-14.1-1.4-21.6
			c2.3-10.9,3.9-21.3-4.1-30.3c-7.6-8.6-19-11.9-29.5-15.6c-13.5-4.7-24.1-12.2-32.7-23.6c-7-9.3-12.1-19.6-17.2-30
			c-4.7-9.5-10.5-18.9-20.9-23c-13.1-5.2-29.6-3.7-43.4-2.5c-16.1,1.4-31.9,4.8-47.2,9.9C664.9,351.6,665.7,354.4,667.5,353.8
			L667.5,353.8z"/>
	</g>
</g>
<g>
	<g>
		<path class="st3" d="M648.5,327.3c2.7-13.4,19-17.6,30.7-14.3c15,4.3,26.5,16.3,39.9,23.7c6.4,3.6,13.2,6.6,20.1,9.1
			c7.4,2.6,15.2,4.3,21.9,8.4c12,7.4,17.7,21.2,28.5,29.8c11.3,9.1,25.9,9,39.3,12.5c15.1,4,28.4,12.8,43.3,17.4
			c8.9,2.8,17.6,4.2,20.9,14.3c2.7,8.2,3.4,17.3,4,25.9c1.2,17.3,0.2,34.7-0.8,52.1c-0.6,10-1.2,20-1.4,30
			c-0.2,7.9-0.7,16.5,2.7,23.9c4.9,10.9,19.8,15.7,26.6,3.8c1-1.7-1.6-3.2-2.6-1.5c-6,10.6-18.3,4.5-21.8-4.5
			c-2.9-7.6-2.1-16.5-1.9-24.5c0.5-17.8,2.1-35.5,2.6-53.2c0.4-16.4,0.2-33.5-3.6-49.5c-1.5-6.1-4.3-11.7-10-14.8
			c-6-3.3-13.2-4.2-19.6-6.6c-14.8-5.7-28.3-13.8-44.1-16.8c-7.3-1.4-14.9-2.3-21.9-4.9c-7.5-2.9-13.2-8.1-18.2-14.2
			c-8.7-10.5-15.8-20.5-29-25.5c-7.5-2.9-15.3-4.9-22.7-8.1c-7.1-3.1-14-6.9-20.4-11.3c-12.1-8.2-24.8-19.7-40.4-19.4
			c-11,0.2-22.7,6.1-25,17.6C645.2,328.4,648.1,329.2,648.5,327.3L648.5,327.3z"/>
	</g>
</g>
<g>
	<g>
		<path class="st3" d="M633.9,310.5c9.8-11.8,23-20.4,38-24.1c8-2,16.2-2.2,23.1,2.7c5.2,3.6,9,9,12.8,13.9
			c7.5,9.7,15.1,16.3,27.1,19.5c11.6,3,26.1,3.5,34.4,13.4c4.2,5.1,6.5,10.9,12.9,13.6c6.3,2.6,13.4,2.3,19.8,4.5
			c13.8,4.6,24.3,16.1,30.8,28.7c15.1,29.1,11,63.7,22.8,93.9c6.3,15.9,17.5,27.6,28.5,40.3c12.3,14.3,20.4,31.4,31.9,46.3
			c0.5,0.6,1.3,1.1,2,0.5c3.3-2.5,4.9-5.7,4.4-9.8c-0.2-1.9-3.2-1.9-3,0c0.3,2.9-0.5,5.4-2.9,7.2c0.7,0.2,1.4,0.4,2,0.5
			c-10.2-13.3-17.5-28.5-28-41.6c-10.4-13.1-23.2-24.3-30.3-39.8c-14-30.7-9.3-66.5-24-97c-5.8-11.9-14.8-22.9-26.7-29.1
			c-6-3.1-12.1-4.3-18.7-5.4c-4-0.7-8.1-1.5-11.4-4.1c-3.2-2.6-4.9-6.4-7.3-9.5c-7.6-10-20.5-11.7-32-14.2
			c-6.6-1.5-13.3-3.3-18.8-7.4c-5.4-4-9.4-9.7-13.5-15c-4-5.1-8.3-10.4-14.2-13.5c-6.6-3.5-14-3.3-21.2-1.7
			c-16,3.5-30.4,12.7-40.9,25.3C630.5,309.8,632.6,311.9,633.9,310.5L633.9,310.5z"/>
	</g>
</g>
<g>
	<g>
		<path class="st3" d="M595.3,262.1c7.1-4.4,14.8-7.4,23-8.8c4.4-0.7,10.5-1.7,14.5,0.5c3.4,1.9,5.1,5.7,7.3,8.8
			c8.1,11.1,22.4,8.6,33.8,13.5c12.1,5.3,19.9,17,30,25.1c4.6,3.7,9.5,6.6,15.2,8.2c8.8,2.5,17,3.2,24.9,8.3
			c14.8,9.7,28.7,21.3,42.9,32c7.3,5.4,14.5,10.9,21.8,16.3c6.5,4.9,13.1,10.1,17.3,17.2c4.4,7.5,5.8,16.8,7.7,25.2
			c2.1,9.3,3.8,18.5,4.8,28c0.9,8.6,1.7,17.3,3.8,25.7c2,8.4,5.1,16.5,8.3,24.6c7.3,19,14.4,38.1,22,57.1
			c2.2,5.5,5.1,12.1,10.8,14.7c2.3,1,4.7,1.2,7.1,0.8c2-0.3,3.8-1.2,5.8-1.6c1-0.2,2.8-0.6,3.8-0.3c1.2,0.4,4.6,3.5,2.1,4.9
			c-1.7,0.9-0.2,3.5,1.5,2.6c3.5-2,2.6-6.3,0-8.7c-5-4.7-11.3,1.1-16.9,0.2c-9-1.5-12.1-15.4-14.8-22.5c-3.5-9.1-7-18.1-10.5-27.2
			c-6.9-17.8-15.2-35.7-18.1-54.7c-1.4-9.4-2-19-3.5-28.4c-1.6-9.7-3.9-19.3-6.3-28.9c-1.9-7.4-4.7-14-9.8-19.8
			c-5.2-5.8-11.7-10.4-17.9-15c-16-12-32-24-48.1-36.1c-6.7-5-13.3-10.7-21.2-13.6c-8.2-3-17.1-2.9-24.8-7.4
			c-11.9-7-19.6-19.4-31.2-26.8c-6.6-4.2-13.8-5.4-21.4-6.9c-4.1-0.8-8.5-1.7-12-4.1c-3.8-2.5-5.6-6.6-8.3-10.1
			c-4.9-6.3-12-6.1-19.4-5.1c-9.1,1.3-17.7,4.5-25.6,9.3C592.1,260.5,593.6,263.1,595.3,262.1L595.3,262.1z"/>
	</g>
</g>
<g>
	<g>
		<path class="st3" d="M618.4,185.1c-2.3-1.8-2.1-1.6,0.5,0.5c0,0.9-0.1,1.8-0.2,2.7c-0.2,2-0.4,4-0.4,6.1c0,3.6,0.3,7.4,1.3,10.9
			c0.9,3.1,2.3,6,4.3,8.5c2.9,3.6,7,5.9,9.4,9.9c4.8,8.2,2.4,16.7,3.6,25.4c0.3,2.5,1.2,4.9,3.3,6.6c2.4,1.9,12.5,1.9,10.9,6.5
			c-0.6,1.8,2.3,2.6,2.9,0.8c1.2-3.6-1.4-6.5-4.7-7.7c-4.1-1.5-8.4-1-9.3-6.4c-0.5-2.7,0-5.5,0-8.3c0-5.3-0.5-10.9-2.7-15.8
			c-2.5-5.7-7.3-8.4-11-13.1c-4.3-5.3-5.1-12.4-4.8-19c0.2-3.7,2.1-9.5-1.3-12.4c-1.7-1.5-4.8-1.6-6.3,0.2c-2.2,2.7,0.9,5.6,3.1,7
			C618.5,188.7,620,186.1,618.4,185.1L618.4,185.1z"/>
	</g>
</g>
<g>
	<g>
		<path class="st3" d="M652.9,200.9c4.4,14.8,4.7,30.1,1.1,45.1c-1.2,4.9-2.4,9.8,0.7,14.3c3.5,4.9,8,8.6,11,14
			c5.7,10.5,8,22.4,13,33.3c5.7,12.5,18.8,25,13.8,39.8c-0.6,1.8,2.3,2.6,2.9,0.8c4.5-13.1-4.2-24.4-10.5-35.1
			c-6.4-10.9-9-23.4-14-34.9c-2.3-5.4-5.2-10.5-9.2-14.8c-3-3.3-6.3-5.5-6-10.5c0.2-3.8,1.7-7.6,2.4-11.3c2.6-13.8,1.7-28-2.3-41.5
			C655.3,198.3,652.4,199.1,652.9,200.9L652.9,200.9z"/>
	</g>
</g>
<g>
	<g>
		<path class="st3" d="M690.1,206c8.4,16,2.3,34.2-0.5,50.8c-2.4,14.9-1.4,29,5,42.8c6.5,14.1,17,26.1,27.8,37.1
			c11.5,11.6,23.8,23.7,38.3,31.5c15.3,8.3,32.6,10.6,49.3,14.4c8.5,2,16.8,4.5,24.9,7.9c8,3.3,17.8,6.5,24.6,11.9
			c5.1,4,3.3,8.9,2,14.3c-0.9,3.9-1.3,7.8-1.3,11.8c-0.1,8.5,1.5,17,2.8,25.4c1.5,9.1,1.7,18,2,27.1c0.3,6.5,1.3,13.1,5.6,18.2
			c9.2,11,25.6,9.4,37.7,15.1c8.6,4.1,12.5,12.2,18.1,19.4c4.4,5.7,18.6,15.4,10.5,23.5c-1.4,1.4,0.7,3.4,2.1,2.1c1-0.9,2-1.7,3-2.6
			c1.5-1.3-0.7-3.4-2.1-2.1c-1,0.9-2,1.7-3,2.6c0.7,0.7,1.4,1.4,2.1,2.1c3.8-3.8,3.8-9.3,1.4-13.9c-1.6-3-4.1-5.5-6.5-7.8
			c-3.2-3.2-6-6.6-8.5-10.4c-3.9-5.7-7.8-11.2-13.9-14.6c-5.6-3.1-11.9-4.4-18.1-5.8c-6.6-1.5-13.9-3.1-19-7.9
			c-6.9-6.5-6.4-16.4-6.5-25.1c-0.2-18.6-7.9-37.7-3.5-56.2c1.5-6.2,3.5-11.6-1.8-16.5c-5.6-5.2-14.5-8-21.4-11
			c-16.9-7.4-34.2-10.7-52-14.8c-9.3-2.2-18.5-4.9-26.9-9.5c-8.3-4.5-15.7-10.4-22.6-16.7c-12.5-11.3-25-23.4-34.6-37.3
			c-5.3-7.8-9.8-16.3-12.1-25.5c-2.5-10.1-1.9-20.1-0.2-30.3c2.9-17,8.4-35.1-0.1-51.5C691.8,202.7,689.2,204.3,690.1,206L690.1,206
			z"/>
	</g>
</g>
<g>
	<g>
		<path class="st3" d="M754.5,287c4.7-7.6,10.8,3.2,11.9,7c0.9,3.2,1.1,6.6,1,9.9c-0.3,7.4-2.3,14.6-3.5,21.9
			c-1.5,9.2-1.7,20,4.1,27.8c6,8,16.2,9.4,25,12.7c11.9,4.5,18,15,24.6,25c6.8,10.3,15.5,18.5,24.7,26.6
			c10.8,9.6,21.7,19.1,32.5,28.7c9.9,8.7,23.9,17.4,24.8,31.8c0.4,6.2-0.2,12.3,1,18.5c1.3,7,3.5,13.8,5.8,20.5
			c3.9,11.8,9,21.3,18.6,29.3c3.6,3.1,3.6,6.1,5.2,10.2c0.6,1.5,1.4,2.7,2.9,3.4c2.5,1.2,5.7,0.4,6.3-2.5c0.4-1.9-2.5-2.7-2.9-0.8
			c-1.3-0.8-2.6-1.5-3.9-2.3c-0.2-1-0.4-2-0.6-3c-0.4-1.2-0.6-2-1.3-3.1c-1.1-1.8-2.7-3.1-4.2-4.4c-5.1-4.3-9.1-8.8-12.2-14.9
			c-2.5-5-4.3-10.3-6-15.7c-2.3-7.4-4.9-15-5.5-22.7c-0.5-5.5,0.3-11-0.5-16.4c-0.9-5.6-3.9-10.2-7.8-14.3
			c-9.4-9.9-20.6-18.5-30.8-27.5c-10.3-9.1-21.1-18-31-27.6c-8.6-8.5-14-18.9-21.3-28.3c-6.7-8.6-14.4-12.6-24.6-15.8
			c-5.2-1.6-10.6-3.3-14.6-7.2c-5-4.9-6.3-12.1-6.3-18.8c0.2-13.5,6.6-26.7,3.7-40.3c-1-4.7-3.3-10.4-8-12.4c-3.7-1.6-7.6-0.4-9.8,3
			C750.8,287.1,753.5,288.6,754.5,287L754.5,287z"/>
	</g>
</g>
<g>
	<g>
		<path class="st3" d="M808.5,304.9c4.8,22.2,9.1,44.6,14.5,66.6c4.5,18.4,11.1,36.9,24.1,51.1c5.7,6.2,12.5,11.3,20.2,14.6
			c9.9,4.3,18.9,7.1,24.8,16.8c5.2,8.4,8.4,18.3,11.7,27.5c3.8,10.4,6.9,21.2,7.5,32.3c0.5,8-1.5,18.1,7.3,22.3
			c5.2,2.5,11.2,3.8,16.6,5.5c2.8,0.9,5.6,1.8,8.4,2.7c1.6,0.5,3.1,1,4.7,1.5c0.6,0.2,1.3,0.4,1.9,0.6c3.8,0.6,4.8,3.2,2.9,7.8
			c-1.5,1.2,0,3.8,1.5,2.6c5.1-3.9,3.7-10.2-1.9-12.7c-4.9-2.2-10.6-3.5-15.7-5.1c-5.6-1.8-13.4-3-18.3-6.3
			c-5.3-3.5-4.1-10.8-4.2-16.3c-0.1-5.3-0.8-10.5-1.9-15.7c-2.3-11.1-6.3-21.6-10.5-32.1c-3.1-8-6.3-16.4-12.3-22.7
			c-6.7-7-16.3-8.8-24.6-13.1c-19.1-9.9-29.9-29.9-36-49.7c-7.9-25.7-12.2-52.8-17.9-79.1C811,302.2,808.1,303,808.5,304.9
			L808.5,304.9z"/>
	</g>
</g>
<g>
	<g>
		<path class="st3" d="M868.3,343.5c21.7,0.8,22.5,29.9,22.4,45.6c-0.1,16.4-1.7,32.9,2,49c3.2,14,10.3,25,21.7,33.7
			c6.3,4.8,13.3,9.3,17.4,16.2c4,6.8,5.2,15,8.6,22.1c3.8,8,9.3,14.3,15.5,20.6c4.5,4.7,5.3,9.3,5,15.6c-0.3,5.4-0.5,10.7-0.8,16.1
			c-0.1,1.8,2.4,1.9,3,0.4c1.1-2.8,2.2-5.6,3.3-8.4c0.7-1.8-2.2-2.6-2.9-0.8c-1.1,2.8-2.2,5.6-3.3,8.4c1,0.1,2,0.3,3,0.4
			c0.2-4.7,0.5-9.5,0.7-14.2c0.2-4.1,0.7-8.4-0.7-12.3c-2.7-7.3-10.7-12.3-15.1-18.6c-5.5-8-7.7-16.9-11.3-25.8
			c-2.8-6.9-7.5-12-13.3-16.5c-6.5-5.1-13.5-9.5-18.5-16.2c-5-6.7-8-14.8-9.7-22.9c-4-18.9-0.8-38.2-1.8-57.3
			c-0.8-15.7-5.8-37.3-25.2-38C866.3,340.5,866.3,343.5,868.3,343.5L868.3,343.5z"/>
	</g>
</g>
<g>
	<g>
		<path class="st3" d="M899.3,331.3c15,9.3,17.8,28,16.5,44.2c-0.8,9.8-2.8,19.5-3.8,29.3c-0.9,9.4-1,18.9-0.1,28.3
			c1.3,13.9,3.5,30.2,13,41.1c4.4,5,10,7,15.8,9.9c3.5,1.7,7.3,4.1,7.5,8.4c0.1,4.5-3.7,8.4-5.9,12c-9.6,15.6,0.2,34.6-7.3,50.7
			c-0.8,1.7,1.6,3.2,2.6,1.5c2.8-5,4.7-10.2,5.6-15.9c0.3-1.9-2.6-2.7-2.9-0.8c-0.9,5.4-2.6,10.4-5.3,15.2c0.9,0.5,1.7,1,2.6,1.5
			c7.2-15.5-1.5-33.6,6.2-48.8c2.9-5.7,9.2-11.3,6.9-18.4c-1.8-5.5-7.7-7.8-12.5-9.9c-8.2-3.6-13.6-9.1-17.1-17.3
			c-3.6-8.6-5.2-18.1-6.1-27.3c-1.1-10.3-1-20.8,0-31.1c1-10.1,3.2-20.1,3.8-30.3c1-16.8-2.9-35.5-18.1-44.9
			C899.2,327.7,897.7,330.3,899.3,331.3L899.3,331.3z"/>
	</g>
</g>
<g>
	<g>
		<path class="st3" d="M966.7,384.3c-8.6,11.7-17.6,23.9-21.4,38.1c-3.5,13.3-1.7,25.4,5.1,37.3c4.7,8.3,6,15.6,4,25
			c-1.8,7.9-4.3,15.7-6.8,23.4c-5.2,16-11.3,31.7-18.3,47c-0.8,1.7,1.6,3.2,2.6,1.5c0.8-1.3,1.6-2.6,2.4-3.9c1-1.7-1.6-3.2-2.6-1.5
			c-0.8,1.3-1.6,2.6-2.4,3.9c0.9,0.5,1.7,1,2.6,1.5c6.6-14.4,12.4-29.1,17.4-44.1c2.6-7.7,5-15.5,7-23.4c1.7-6.5,3-13.2,1.5-19.9
			c-1.6-6.9-6.4-12.4-8.9-18.9c-3-7.5-3.1-16-1.5-23.9c3.2-15.4,12.7-28.3,21.9-40.7C970.4,384.3,967.8,382.8,966.7,384.3
			L966.7,384.3z"/>
	</g>
</g>
<g>
	<g>
		<path class="st3" d="M945.4,550.7c7-2.7,11.2-8.5,14.7-14.9c4-7.1,7.2-14.8,9.5-22.6c5-17.3,3.1-35,6.3-52.5
			c1.7-9.5,5.8-17.5,11.7-25.1c4.6-6,9.7-11.6,13.3-18.3c8-14.9,8.3-36.9,25.7-44.7c1.8-0.8,0.2-3.4-1.5-2.6
			c-14.5,6.5-18,22.7-22.8,36.2c-3.1,9-8,16.1-13.9,23.5c-4.7,5.8-9.3,11.7-12.2,18.7c-6.7,16.2-3.9,34.4-6.7,51.4
			c-1.5,9-4.1,17.8-7.8,26c-3.6,8.2-8.3,18.6-17.2,22C942.8,548.5,943.6,551.4,945.4,550.7L945.4,550.7z"/>
	</g>
</g>
<g>
	<g>
		<path class="st3" d="M955.4,552.2c0.7,4.5,5.7,5,9.4,4c5.8-1.6,10.9-7.3,14.5-11.8c10-12.7,15.6-28.8,22.5-43.3
			c8.4-17.6,17.2-35,26.9-51.9c4.4-7.6,9.2-15.1,15.6-21.2c5.3-5.1,11.5-9,17.7-12.8c13-7.9,27.1-15.3,34.9-29
			c1-1.7-1.6-3.2-2.6-1.5c-6.6,11.5-17.9,18.4-29,25c-11.1,6.6-21.7,13.3-29.8,23.6c-9.5,12.2-16.3,26.8-23.4,40.5
			c-7.8,15.1-15.1,30.4-22.2,45.8c-3.2,7.1-6.6,14.2-11.1,20.5c-2.4,3.3-5,6.3-8.1,9c-1.9,1.6-11.4,8.4-12.3,2.3
			C958,549.5,955.2,550.3,955.4,552.2L955.4,552.2z"/>
	</g>
</g>
<g>
	<g>
		<path class="st3" d="M961.6,561.2c16.4-25.6,19.6-56.3,34.6-82.6c13.7-24,32.2-44.7,48.7-66.7c9.3-12.4,17.9-25.2,24.8-39.1
			c0.8-1.7-1.7-3.3-2.6-1.5c-24.3,49.3-70.8,84.6-87.5,138.1c-5.5,17.6-10.5,34.7-20.5,50.4C958,561.3,960.6,562.8,961.6,561.2
			L961.6,561.2z"/>
	</g>
</g>
<g>
	<g>
		<path class="st3" d="M957.9,554.8c15.7,14.8,43.7,1.3,59.2-7.3c20.9-11.6,39.1-27.3,59.8-39.1c23-13.1,48.7-19.8,74.4-25.6
			c13.1-3,26.2-5.8,39.2-9.3c13.3-3.6,25.9-8.3,38.7-13.2c6.8-2.6,13.6-4.8,20.7-6.1c7-1.2,14.1-1.7,21-2.9
			c8.6-1.5,26-5.9,24.3-17.7c-0.3-1.9-3.2-1.1-2.9,0.8c1.1,7.4-10.7,11.2-15.9,12.7c-6.1,1.7-12.5,2.3-18.8,3.1
			c-12.1,1.5-23.1,4.9-34.4,9.3c-22.5,8.9-45.8,14.4-69.3,19.7c-23.3,5.3-46.7,10.9-68.3,21.3c-19.8,9.6-37,23.4-55.2,35.5
			c-10.3,6.8-21.1,13.1-32.8,17.4c-11.4,4.2-27.5,8.9-37.6-0.6C958.6,551.4,956.5,553.5,957.9,554.8L957.9,554.8z"/>
	</g>
</g>
<g>
	<g>
		<path class="st3" d="M960.8,545.7c9.4,14.1,32.5-2.7,41-9.5c8.7-6.9,16.9-14.2,26-20.7c8.3-5.9,17-11.4,25.9-16.5
			c37.3-21.1,78-34.8,117.9-50c18.2-6.9,37.3-15.4,47.5-32.9c0.4-0.6,0.2-1.3-0.2-1.8c0.2-1.3,0.5-2.5,0.7-3.8
			c1.7-1,0.1-3.6-1.5-2.6c-3.2,2-3.7,5.6-1.3,8.5c-0.1-0.6-0.2-1.2-0.2-1.8c-9.3,15.9-26.4,24.1-42.9,30.5
			c-17.9,7-36.1,13.3-54,20.3c-35.4,13.8-70.5,29.8-100.8,53.1c-8.3,6.4-16,13.7-24.6,19.7c-6.6,4.6-24.2,15.7-30.7,5.9
			C962.4,542.5,959.8,544,960.8,545.7L960.8,545.7z"/>
	</g>
</g>
<g>
	<g>
		<path class="st3" d="M971.8,541.8c14.8-7.1,29.7-14.3,42.3-24.8c13.8-11.4,22-27.3,33.6-40.7c11.4-13.2,25.2-24.1,38.9-34.8
			c15.5-12.1,31-24.1,46.5-36.2c1.5-1.2-0.6-3.3-2.1-2.1c-15.3,11.9-30.5,23.8-45.8,35.6c-13.5,10.5-27.1,21.2-38.5,34.1
			c-11.4,12.8-19.3,28.4-32.2,39.8c-12.9,11.5-28.8,19-44.3,26.5C968.6,540.1,970.1,542.7,971.8,541.8L971.8,541.8z"/>
	</g>
</g>
<g>
	<g>
		<path class="st3" d="M978.5,567.8c19.6,11.5,43,9.3,64.2,4.3c13-3.1,25.8-7.1,39-9.2c12.9-2.1,26-2.8,38.9-4.7
			c26.4-3.9,52.4-10.4,78.4-16.5c26-6.1,51.9-12.5,77.9-18.5c29.7-6.9,59.7-15.6,90.1-8.1c1.9,0.5,2.7-2.4,0.8-2.9
			c-25.1-6.2-49-1.6-73.7,3.9c-26,5.8-52,12.2-77.9,18.4c-25.3,6-50.7,12-76.2,17.2c-25.8,5.2-52.2,5.9-77.8,12.4
			c-26.6,6.7-56.6,16.3-82.2,1.2C978.3,564.2,976.8,566.8,978.5,567.8L978.5,567.8z"/>
	</g>
</g>
<g>
	<g>
		<path class="st3" d="M991,558.5c-2.4,2.2-2.5,5.6-0.5,8.3c3.3,4.5,9.6,3,14.2,2.1c14.3-2.8,28.5-6.6,42.5-10.7
			c28.7-8.4,56.8-18.6,85.5-27.2c29.6-8.9,59.4-15,90.2-17.8c30.7-2.8,60.5-5.4,90-14.9c15.6-5,31.1-10.7,47.3-13.5
			c16.5-2.9,33.6-1.5,49.4-7.8c1.8-0.7,1-3.6-0.8-2.9c-13.4,5.3-27.7,5-41.8,6.7c-12.8,1.5-25.2,5-37.5,8.9
			c-13.4,4.3-26.7,9-40.4,12.2c-14.2,3.2-28.7,4.9-43.2,6.3c-27.7,2.6-55.2,4.8-82.3,11.3c-26.7,6.3-52.7,15.1-78.8,23.6
			c-14.5,4.8-29,9.5-43.7,13.6c-7.6,2.2-15.3,4.2-23,6c-3.5,0.8-7.1,1.7-10.7,2.4c-1.8,0.4-3.6,0.8-5.4,1.1
			c-1.4,0.3-2.9,0.5-4.3,0.5c-4.1,0.3-5.6-1.7-4.6-6.2C994.6,559.3,992.4,557.2,991,558.5L991,558.5z"/>
	</g>
</g>
<g>
	<g>
		<path class="st3" d="M976,564c16.4,0,31.4-3.8,46.7-9.4c7.6-2.8,15.3-5.2,23.3-6.5c8.9-1.5,17.8-2,26.8-3
			c32.5-3.7,62.8-18.2,93-30c16.1-6.3,32.3-12.6,48.4-18.9c15.4-6,30.9-12,47.1-15.6c33.3-7.5,67.6-6.2,101.4-9.3
			c31.8-2.9,64.3-10,90.2-29.7c1.5-1.1,0-3.8-1.5-2.6c-51.1,38.9-119.3,26.5-178.7,36.3c-32.7,5.4-63.3,19.6-93.9,31.5
			c-15.8,6.2-31.6,12.4-47.4,18.6c-15,5.8-30.1,11.6-45.9,14.8c-18.2,3.6-36.9,2.9-54.7,8.5c-8.5,2.7-16.8,6.3-25.4,8.7
			c-9.5,2.6-19.3,3.7-29.2,3.7C974.1,561,974.1,564,976,564L976,564z"/>
	</g>
</g>
<g>
	<g>
		<path class="st3" d="M1014.4,556.6c19.8-14.9,40.8-28.3,63.6-38.1c24.1-10.5,49.9-16,75.6-21.2c27.3-5.5,54.6-11.1,81.9-16.6
			c25.8-5.2,52.1-9.4,77.5-16.1c22-5.8,45.5-18.4,50.5-42.6c0.4-1.9-2.5-2.7-2.9-0.8c-5.1,24.3-29.1,35.8-51,41.2
			c-25.3,6.3-51.3,10.7-76.9,15.9c-26,5.3-52.1,10.5-78.1,15.8c-24.7,5-49.5,10.2-72.9,19.7c-24.8,10.1-47.5,24.3-68.8,40.3
			C1011.4,555.2,1012.9,557.8,1014.4,556.6L1014.4,556.6z"/>
	</g>
</g>
<g>
	<g>
		<path class="st3" d="M1019,567.2c49.3-7.2,98.6,2.5,146.5,13.4c24,5.5,47.9,11.2,72.1,15.8c10.9,2.1,22.2,4.3,31.6,10.4
			c9.7,6.3,16.6,16.5,23.7,25.3c8.7,10.8,17.3,21.6,25.9,32.5c7.6,9.5,15.6,18.8,25.5,25.9c0.6,0.5,1.7,0.1,2.1-0.5
			c1.6-3.2,3.1-6.3,4.7-9.5c0.8-1.7-1.7-3.3-2.6-1.5c-1.6,3.2-3.1,6.3-4.7,9.5c0.7-0.2,1.4-0.4,2.1-0.5c-9.8-7-17.5-16.1-24.9-25.4
			c-7.8-9.8-15.6-19.7-23.5-29.5c-7.4-9.1-14.4-19.3-23.7-26.6c-8.3-6.5-18.5-9.5-28.7-11.6c-23.8-5-47.7-9.9-71.4-15.4
			c-24.7-5.7-49.4-11.2-74.5-14.6c-26.9-3.6-54.1-4.5-81.1-0.5C1016.3,564.6,1017.1,567.5,1019,567.2L1019,567.2z"/>
	</g>
</g>
<g>
	<g>
		<path class="st3" d="M997.5,562.9c55.2-14.9,113.1-11.1,169.1-2.6c25.7,3.9,52.2,8.1,75.7,19.7c11.3,5.6,21,13.3,31.2,20.7
			c10.7,7.8,21.7,13.5,34.7,16.2c14.8,3.1,30.2,4.3,45.2,6.2c8.3,1,16.5,2.1,24.8,3.1c7.5,1,15.2,2.5,22.7,0.9
			c1.9-0.4,1.1-3.3-0.8-2.9c-7.2,1.5-14.7-0.1-21.8-1c-7.9-1-15.9-2-23.8-3c-14.5-1.8-29.2-3.1-43.6-5.9
			c-13.4-2.6-24.8-8.2-35.8-16.2c-10.4-7.6-20.3-15.4-31.9-21c-22.8-11-48.1-15.3-72.9-19.2c-27.3-4.2-54.9-7.4-82.6-7.9
			c-30.6-0.6-61.3,2.2-90.9,10.1C994.9,560.5,995.7,563.4,997.5,562.9L997.5,562.9z"/>
	</g>
</g>
<g>
	<g>
		<path class="st3" d="M1051.5,561c25-0.7,48.7-8.7,72.7-14.7c12.5-3.1,25.1-5.7,38-6.2c13.3-0.5,26,1.9,38.5,6.1
			c13.2,4.4,26.2,9.6,39.2,14.4c13.6,5,27.5,9.7,40.6,15.8c11.3,5.3,21.2,13.4,32.6,18.5c11.3,5,23.2,4.5,35.3,4.3
			c7.4-0.1,14.8,0.2,21.9,2.3c6.4,1.9,12.3,4.8,18.3,7.8c10.8,5.4,21.7,10.8,34,10.8c0.7,0,1.3-0.5,1.4-1.1c0.6-1.9,1.1-3.7,1.7-5.6
			c0.6-1.8-2.3-2.6-2.9-0.8c-0.6,1.9-1.1,3.7-1.7,5.6c0.5-0.4,1-0.7,1.4-1.1c-12.3,0.1-23.1-5.7-33.9-11.1c-10-5-20-9-31.3-9.7
			c-13.4-0.8-27.2,1.8-40.1-2.9c-11.8-4.3-21.6-12.8-32.8-18.4c-11.7-5.8-24.1-10-36.3-14.6c-13.5-5-27-10.2-40.6-15.1
			c-12-4.3-24.3-7.8-37.1-8.3c-11.9-0.5-23.8,1.1-35.5,3.5c-27.9,5.8-54.9,16.4-83.6,17.3C1049.6,558.1,1049.6,561.1,1051.5,561
			L1051.5,561z"/>
	</g>
</g>
<g>
	<g>
		<path class="st3" d="M1094,565.6c25.9-4.5,51.8-9,77.8-13.5c24.1-4.2,52.3-12.8,75.1,0c17.3,9.7,33,29.1,54.9,26.3
			c11.3-1.5,20.6-9.9,32.4-8.9c11.1,1,20.7,8.2,29.7,14.2c21,13.9,45,21.2,70.2,20.1c1.9-0.1,1.9-3.1,0-3
			c-24.4,1.1-47.7-5.8-68-19.2c-8.4-5.5-17-11.9-26.9-14.3c-10.5-2.5-19,1.7-28.5,5.5c-25,10-42.4-12.3-62.1-23.3
			c-20.8-11.6-44.5-6-66.6-2.2c-29.5,5.1-59.1,10.3-88.6,15.4C1091.3,563.1,1092.1,566,1094,565.6L1094,565.6z"/>
	</g>
</g>
<g>
	<g>
		<path class="st3" d="M1005.6,571.1c7.4,0.6,13.8-4.3,19.3-8.7c6.2-4.9,11.8-10.7,16.4-17.2s8.4-13.6,11-21.1
			c2.8-7.8,4-16.3,8-23.6c9.4-17.1,29.8-10.3,45.5-12.7c16.5-2.5,23.1-16.7,32.8-28.3c6.7-8,15.5-13.8,24.2-19.5
			c9.8-6.3,19.6-12.6,29.3-18.9c0.5-0.3,0.9-1.1,0.7-1.7c-1.1-3-3.1-4.6-6.4-4.7c-1.9-0.1-1.9,2.9,0,3c1.2,0.8,2.3,1.7,3.5,2.5
			c0.2-0.6,0.5-1.1,0.7-1.7c-15.3,9.8-31.8,18.9-45.8,30.5c-6.3,5.2-10.9,11.5-15.7,18.1c-5,7-10.6,13.9-19.1,16.6
			c-14.1,4.4-30.5-2.4-43.6,5.8c-12.8,7.9-13.3,25.3-18.6,37.9c-3.8,9-9.2,17.2-15.8,24.3c-6.3,6.7-16.5,17-26.3,16.3
			C1003.7,568,1003.7,571,1005.6,571.1L1005.6,571.1z"/>
	</g>
</g>
<g>
	<g>
		<path class="st3" d="M1003.6,551.9c-5.9-3.2-12.7-2.2-17.5,2.5c-0.9,0.9-0.2,2.5,1.1,2.6c11.7,0.2,20.8,9,32.8,7.5
			c10.9-1.4,21.9-6.9,31.3-12.3c10.2-5.9,19.7-13,28.6-20.8c8.9-7.9,17.1-17.4,28.1-22.6c11.9-5.6,25.9-5.3,38.4-1.8
			c11.2,3.2,22,9.8,33.9,9.6c11.8-0.2,21.9-8.1,33.3-10.5c13.3-2.9,27.2-3.1,40.7-4.2c31.5-2.6,63.1-5.2,94.6-7.8
			c1.9-0.2,1.9-3.2,0-3c-27.9,2.3-55.8,4.6-83.8,6.9c-13.8,1.1-27.7,2-41.4,3.5c-5.4,0.6-10.9,1.4-16.1,3
			c-6.1,1.9-11.6,5.1-17.7,7.2c-13.5,4.7-25.4-1.6-37.9-6c-10.4-3.6-21.6-5.3-32.5-3.5c-11,1.8-20,7.3-28.2,14.6
			c-9.2,8.2-17.9,16.7-27.9,24c-11.3,8.2-24,15.5-37.5,19.4c-7.9,2.3-14.7,1.4-22.1-1.6c-5.4-2.2-10.6-4.5-16.6-4.6
			c0.3,0.8,0.7,1.7,1.1,2.6c3.8-3.7,9.1-4.5,13.8-2C1003.8,555.4,1005.3,552.8,1003.6,551.9L1003.6,551.9z"/>
	</g>
</g>
<g>
	<g>
		<path class="st3" d="M1027.2,541.4c0.1,8.4,7.7,12.7,14.8,14.8c11.3,3.3,24,4.1,35.7,4.8c24.5,1.4,49.6-1,72.3-10.8
			c12.1-5.2,23.5-12.4,36.7-14.5c13.7-2.2,27.7,0.5,40.7,4.6c24.6,7.7,47,20.1,73,23.3c7.7,0.9,15.4,1.6,22.8,3.8
			c7.5,2.2,14.4,5.9,21.6,8.9c11.2,4.7,23.6,7.6,35,2.1c1.7-0.8,0.2-3.4-1.5-2.6c-12.5,6-26.1,0.6-37.8-4.7
			c-10.4-4.7-20.5-8.1-31.9-9.6c-12.9-1.7-25.1-3.5-37.4-7.8c-11.3-4-22.3-8.9-33.5-13c-21.7-8-44.7-12.4-66.8-3.4
			c-10.8,4.4-20.9,10.3-32,14c-11.7,3.8-23.8,6-36.1,6.8c-13.7,0.9-27.5,0.2-41.1-1.5c-9.1-1.1-31.4-2-31.5-15.1
			C1030.2,539.4,1027.2,539.4,1027.2,541.4L1027.2,541.4z"/>
	</g>
</g>
<g>
	<g>
		<path class="st3" d="M1367.4,514.6c3.3,4,7.6,6.8,12.5,8.5c1.8,0.6,2.6-2.3,0.8-2.9c-4.4-1.5-8.2-4.1-11.1-7.7
			C1368.3,511,1366.2,513.1,1367.4,514.6L1367.4,514.6z"/>
	</g>
</g>
<g>
	<g>
		<path class="st3" d="M1008.5,588.9c11.5-4.2,23.4-7.6,35.5-9.5c8.8-1.4,19-1.9,27.2,2.4c18.2,9.4,2.4,33.4,16.3,45
			c7,5.9,18.4,4.6,26.8,6.1c11.1,2,20.4,6.8,27.7,15.5c6.2,7.4,10.6,16.1,15.8,24.3c5.1,8,11,15.1,18.4,21.1
			c9.1,7.3,19.3,13,29.6,18.4c10.8,5.6,21.6,11.5,33.8,13.1c1.9,0.3,1.9-2.8,0-3c-12.7-1.7-24.1-8.3-35.2-14.2
			c-9.5-5.1-19-10.5-27.3-17.4c-8.2-6.9-14.2-15.3-19.7-24.4c-4.6-7.6-9-15.5-15.1-22c-6.4-7-14.5-11.4-23.7-13.5
			c-4.9-1.1-10-1.7-15-2.2c-6-0.6-12.8-1.2-16.5-6.8c-4.7-7.2-2.1-17.6-3.2-25.7c-1-7.8-5.1-14.1-12.3-17.5
			c-7.9-3.7-17.2-3.7-25.6-2.6c-13.1,1.7-26,5.4-38.3,9.9C1005.9,586.7,1006.7,589.6,1008.5,588.9L1008.5,588.9z"/>
	</g>
</g>
<g>
	<g>
		<path class="st3" d="M1001.8,576.4c20.8-15.3,47-25.6,73-25.4c11.2,0.1,23.5,2.7,31.1,11.7c8.1,9.6,8.8,23,15.6,33.3
			c6.3,9.5,14.9,12.4,26,10.8c7.1-1,14.2-2.2,21.3-3.4c3.1-0.5,7.7-2.2,10.7-1.7c5.6,1,3.5,8.5,3.1,12c-1.1,11.1,2.1,18.6,11.5,24.6
			c4.3,2.7,8.9,4.8,13.2,7.5c5.1,3.2,9.8,7,14.3,11c17.2,15.3,32.2,34.9,55.3,41.1c0.8,0.2,1.6-0.3,1.8-1c0.9-3.5-0.2-6.2-3-8.3
			c-1.5-1.2-3,1.4-1.5,2.6c0.5,1.7,1.1,3.3,1.6,5c0.6-0.3,1.2-0.7,1.8-1c-22.6-6.1-37.2-25.5-54-40.4c-8-7.1-16.6-12.2-25.8-17.5
			c-4.9-2.9-10-6.4-11.9-12.1c-2.4-7.1,1.3-14.3,0-21.5c-0.7-3.7-3-5-6.6-5c-6.9,0.1-14.3,2.2-21.2,3.3c-7.3,1.2-16.1,3.9-23.4,1.5
			c-6.5-2.2-10.8-8.2-13.7-14.1c-5.2-10.6-6.6-23-15.7-31.3c-7.5-6.9-17.9-9.5-27.8-9.9c-27.4-1.2-55.7,9.7-77.4,25.8
			C998.7,574.9,1000.2,577.5,1001.8,576.4L1001.8,576.4z"/>
	</g>
</g>
<g>
	<g>
		<path class="st3" d="M1022.4,566.3c19.4-6,42.1-12.7,60.6-0.6c8.9,5.8,11.8,14.1,14.5,23.8c2.2,7.7,5.6,14.1,12.3,18.7
			c7.2,5,15.9,7.3,24.1,10c10.7,3.5,21.3,7,32,10.5c2.5,0.8,5,1.7,7.5,2.5c1.3,0.4,2.5,0.8,3.8,1.2c3.1,1,3.5,0.8,5.4,3.8
			c3.1,5,2.8,12.6,3.4,18.4c1,8.2,2.5,15.7,9,21.3c6.9,6.1,15.9,9.5,23.2,15c9.3,7,16.9,15.8,22.7,25.8c0.6,1,1.9,0.9,2.6,0
			c1.7-2.3,3.4-4.7,5.2-7c1.2-1.6-1.5-3-2.6-1.5c-1.7,2.3-3.4,4.7-5.2,7c0.9,0,1.7,0,2.6,0c-4.8-8.2-10.8-15.7-17.9-22.1
			c-7-6.3-15-10.5-22.9-15.4c-4.1-2.5-8-5.5-10.4-9.7c-3-5.4-3.2-12.1-3.9-18.2c-0.6-4.7-0.3-10.5-1.8-15c-1.2-3.6-4.4-4.2-7.7-5.2
			c-11.6-3.8-23.2-7.6-34.8-11.4c-9.9-3.2-20.6-5.8-29.7-10.9c-4.4-2.5-8.4-5.8-10.8-10.3c-2.5-4.5-3.3-9.8-4.8-14.7
			c-2.4-7.9-6.7-14.4-13.6-19c-19.2-13.1-43.2-6.5-63.5-0.2C1019.8,564,1020.5,566.9,1022.4,566.3L1022.4,566.3z"/>
	</g>
</g>
<g>
	<g>
		<path class="st3" d="M1016.8,570.4c-3.3-4.2,14.5-8.9,16.8-9.6c6.6-2,13.4-3.8,20.1-5.3c13.4-3,27.1-4.9,40.8-5.7
			c12.8-0.7,25.8-0.6,37.9,3.9c11.5,4.3,21.5,11.8,30.8,19.6c9.1,7.6,18.2,15.2,26.3,23.8c4.1,4.4,8,9.1,11.2,14.2
			c3.3,5.2,5.4,10.8,8.3,16.2c4.4,8.1,11.6,14.2,20.2,17.3c4.5,1.6,9.1,2.3,13.8,2.3c4.4,0,11-1,14.5,2.3c2.4,2.3,1,5.7,2.1,8.4
			c0.5,1.4,1.5,2.6,2.6,3.5c3.4,2.8,8.2,3.3,12.3,4.2c14.1,3,26.5,10.5,38.7,17.9c1.7,1,3.2-1.6,1.5-2.6c-10.9-6.6-22-13.4-34.4-17
			c-4.8-1.4-11.6-1.4-15.7-4.4c-4.3-3.1-1.2-9.4-5.8-12.8c-6.9-5.2-18.2-1.7-26-3.8c-6.1-1.7-11.8-5-16.1-9.6
			c-4.8-5-7.1-11.5-10.2-17.6c-5.7-11.2-14.3-20.5-23.4-28.9c-8.7-8-17.8-16-27.3-23.1c-10.1-7.5-21.2-13.6-33.7-15.8
			c-13.4-2.4-27.5-1.4-40.9,0.1c-15.2,1.7-30.2,4.6-44.9,8.9c-4.6,1.3-29,6.3-21.7,15.7C1015.8,574.1,1018,571.9,1016.8,570.4
			L1016.8,570.4z"/>
	</g>
</g>
<g>
	<g>
		<path class="st3" d="M1011.1,600c21.6,2.5,44.8,12.2,52.3,34.3c3.7,11,1.2,21-3.6,31.2c-3.7,8-8.1,16.4-6.7,25.5
			c2.3,14.4,16.7,21.9,25.2,32.3c7.2,9,6.2,18,3.2,28.6c-2.7,9.5-3.8,19-2.4,28.8c3.1,23.3,16.4,44,31,61.8c0.4,0.5,1.3,0.6,1.8,0.2
			c2.1-1.6,3.1-3.2,3.1-5.9c0-1.9-3-1.9-3,0c-0.5,1.1-1.1,2.2-1.6,3.3c0.6,0.1,1.2,0.2,1.8,0.2c-14.4-17.6-27.9-38.5-30.3-61.7
			c-0.6-5.6-0.5-11.2,0.4-16.7c1-6.1,3.3-11.9,4.4-18c1.4-7.8-0.2-14.8-4.9-21.2c-9.4-12.6-29.2-21.7-25.4-40.3
			c2.1-10,8.5-18.3,10.9-28.2c2.1-8.5,0.8-17.4-2.9-25.3c-9.6-20.7-32-29.5-53.4-32C1009.2,596.8,1009.2,599.8,1011.1,600
			L1011.1,600z"/>
	</g>
</g>
<g>
	<g>
		<path class="st3" d="M1006.9,583.2c21.2-4.4,55-9.4,64.5,16.1c4.1,11.1,3,22.9,2.6,34.5c-0.3,9.8-0.8,19.5,8.4,25.3
			c4.3,2.7,8.7,4.7,11.5,9.3c2.9,4.8,3.8,10.6,3.8,16.1c0.1,11.8-2.6,23,0.3,34.7c2.7,11,8.3,21.1,13.6,31
			c5.6,10.7,10.9,21.7,17,32.2c6.2,10.6,16.7,14.4,27.2,19.5c12.8,6.1,25.6,12.3,38.4,18.4c1.7,0.8,3.3-1.8,1.5-2.6
			c-11.7-5.6-23.3-11.2-34.9-16.7c-10.9-5.2-23.2-9.1-29.7-20.1c-6.4-11-12-22.6-17.9-33.9c-5.9-11.3-12.4-23.1-13.7-36
			c-1.1-11.4,2.5-22.8,0.5-34.1c-1.7-9.5-6.8-14.8-14.8-19.5c-6.8-4-8.1-9-8.2-16.5c-0.1-6.9,0.5-13.8,0.5-20.6
			c0-9.8-1.2-20.1-6.6-28.5c-5.7-8.9-14.8-12.9-25.1-14c-13.2-1.4-26.8,0.2-39.7,2.9C1004.2,580.7,1005,583.6,1006.9,583.2
			L1006.9,583.2z"/>
	</g>
</g>
<g>
	<g>
		<path class="st3" d="M993.5,587.1c13.9-1.9,28-1.2,41.6,2.3c11.5,2.9,24.7,7.5,32.7,16.8c16.3,18.7-12.2,41.3,3.1,60.7
			c6.1,7.7,15.3,12,21.8,19.3c7.3,8.2,10.1,19.2,15.3,28.5c4.6,8.3,11.1,14.2,20.1,17.5c9.3,3.5,19.4,4.3,28.7,7.7
			c6.4,2.3,11.2,6,15.5,11.2c3.6,4.3,7.2,8.1,12.4,10.3c12.8,5.5,29.2,5.3,42.9,5c1.9,0,1.9-3,0-3c-13.3,0.3-29.4,0.6-41.9-4.9
			c-5.9-2.6-9.2-7.3-13.3-12c-3.4-3.7-7.3-6.5-12-8.5c-9.3-4-19.4-4.8-29-7.9c-11.6-3.7-18.3-11.3-23.4-22.1
			c-4.3-9.1-7.8-18.8-15.1-26c-7.2-7-17.7-11.8-22.2-21.1c-5.5-11.3,2.5-23.2,4.8-34.2c2-9.4-0.6-18-7.5-24.7
			c-9-8.6-22-13.1-33.8-16c-13.6-3.2-27.6-3.8-41.5-1.9C990.8,584.4,991.6,587.3,993.5,587.1L993.5,587.1z"/>
	</g>
</g>
<g>
	<g>
		<path class="st3" d="M1004.9,614.1c4.3-3.5,10.4-1,13.2,3.1c3.2,4.7,2.8,11.1,2,16.5c-1.4,9.7-4.4,19.1-6.3,28.7
			c-1.7,8.5-2.4,17.1-0.8,25.7c1.7,8.8,5.6,16.9,8.3,25.3c3.1,9.6,3.7,18.4-0.7,27.7c-2.9,6.1-7.5,12.7-6.5,19.8
			c0.4,2.8,1.6,5,3.3,7.2c1.6,2,3.5,3.7,4.3,6.3c0.8,2.4,0.5,5.2,0.5,7.7c0,10.2,0,20.5,0,30.7c0,1.8,2.3,1.9,2.9,0.4
			c1.2-2.8,2.3-5.6,3.5-8.3c0.7-1.8-2.2-2.6-2.9-0.8c-1.2,2.8-2.3,5.6-3.5,8.3c1,0.1,2,0.3,3,0.4c0-9,0-17.9,0-26.9
			c0-7.1,0.4-12.8-4.3-18.4c-6.6-7.8-2.8-14.8,1.3-22.9c3.1-6.2,5.3-12.2,4.8-19.3c-1.1-15.6-11.1-29-11.9-44.8
			c-0.9-17.4,7.1-33.6,8.3-50.7c0.5-6.5-0.7-13.9-6.3-17.9c-4.5-3.2-10.1-3.6-14.4-0.1C1001.3,613.2,1003.4,615.3,1004.9,614.1
			L1004.9,614.1z"/>
	</g>
</g>
<g>
	<g>
		<path class="st3" d="M1020.7,594.7c14.8,8.6,25.5,23.6,28.1,40.6c3.1,20.4-4.9,40.3-8.7,60.1c-3.1,16.1-3.9,33.3,4.5,48
			c2.3,4.1,5.4,8.1,6.7,12.7c1.4,5-0.1,9.7-1.9,14.3c-2.8,7.2-5.9,13.8-3.8,21.7c2.4,9.2,9.4,16.4,12.3,25.4
			c3.3,10.5,1.9,21.8-3.4,31.3c-0.3,0.6-0.2,1.3,0.2,1.8c2.7,2.7,6.6,1.7,8-1.8c0.7-1.8-2.2-2.6-2.9-0.8c-1,0.2-2,0.3-3,0.5
			c0.1,0.6,0.2,1.2,0.2,1.8c4-7.3,6.1-15.5,5.5-23.8c-0.6-8.5-3.9-15.7-8.2-23c-2.4-4.1-5-8.3-6-13c-1.2-5.3,0.2-10.1,2.2-15
			c3.2-7.9,6.2-15,2.6-23.3c-1.7-3.9-4.2-7.4-6.3-11.1c-2.5-4.5-4.2-9.4-5.1-14.5c-1.8-10.4-0.6-21.1,1.4-31.3
			c3.9-19.8,11.6-39.4,8.7-59.9c-2.6-18.1-13.8-34.2-29.6-43.3C1020.6,591.1,1019,593.7,1020.7,594.7L1020.7,594.7z"/>
	</g>
</g>
<g>
	<g>
		<path class="st3" d="M990.8,674.3c8.8,8-1.3,25.2-5.2,33.4c-4,8.7-8,18.3-6.7,28.1c0.7,5.1,3.1,9.3,5.4,13.8
			c2.9,5.5,3.9,11,3.3,17.2c-0.9,10.3-4.5,20.2-2.3,30.6c0.4,1.7,3,1.3,3-0.4c0-2-0.1-4-0.1-6.1c0-1.9-3-1.9-3,0c0,2,0.1,4,0.1,6.1
			c1-0.1,2-0.3,3-0.4c-2.4-11.4,2.6-22.4,2.5-33.8c0-11.9-9.7-20.5-9.1-32.5c0.6-12,7.6-22.3,11.8-33.2c2.9-7.5,6.3-18.7-0.7-25
			C991.5,670.9,989.4,673,990.8,674.3L990.8,674.3z"/>
	</g>
</g>
<g>
	<g>
		<path class="st3" d="M953.5,684.6c3.6,20.5,0.3,42.1-9.7,60.4c-1.7,3.2-4.3,6.5-4.5,10.2c-0.3,4.6,3.7,5.9,5,9.9
			c1.4,4.2,0.5,7.4,3,11.3c3.8,5.8,3.4,10.8,2,17.4c-0.2,1,0.7,2.3,1.8,1.8c2.9-1.1,4.5-3.1,4.4-6.3c0-1.9-3-1.9-3,0
			c-0.7,1.2-1.5,2.3-2.2,3.4c0.6,0.6,1.2,1.2,1.8,1.8c0.9-4.3,1.8-8.7,0.9-13.1c-1-5-4.9-8.1-5.4-13.3c-0.2-1.8-0.3-3.6-1-5.3
			c-0.7-1.7-2.2-2.5-3.2-3.9c-3.3-5,3.4-12.9,5.6-17.6c8.3-18,10.8-38,7.4-57.5C956.1,681.9,953.2,682.7,953.5,684.6L953.5,684.6z"
			/>
	</g>
</g>
<g>
	<g>
		<path class="st3" d="M927.2,680.8c7.4,15.8,1.9,33.8-7,47.8c-8.8,13.7-20.8,24.9-30.1,38.2c-7.8,11-14.8,25.6-9.9,39.3
			c2.7,7.5,8,13.7,10.5,21.3c2.7,8.3,3.2,17.1,1.8,25.7c1,0.3,1.9,0.5,2.9,0.8c0.7-4.7,0.5-9.2-0.5-13.9c-0.4-1.9-3.3-1.1-2.9,0.8
			c1,4.2,1.1,8.1,0.5,12.3c-0.3,1.9,2.6,2.7,2.9,0.8c1.3-7.5,1.2-15-0.5-22.4c-1.8-8.2-5.9-14.6-9.8-21.9
			c-9.4-17.6,2.6-35.7,13.6-49.3c18-22.2,45.7-49.9,31.1-81C929,677.5,926.4,679,927.2,680.8L927.2,680.8z"/>
	</g>
</g>
<g>
	<g>
		<path class="st3" d="M919,685c-10.1,30.5-44.2,41-68.3,57.6c-10.7,7.3-22.9,17.3-25.2,30.9c-0.9,5.4,0.2,10.7,3.8,15
			c5.3,6.2,12.3,9.2,15,17.4c1.5,4.5,1.3,9,0.3,13.6c-0.8,3.6-1.8,7.2-1.1,10.8c0.7,3.6,2.8,7,4.4,10.3c2.3,4.9,4.5,9.8,6.7,14.7
			c0.8,1.8,3.3,0.2,2.6-1.5c-1.6-3.8-3.3-7.5-5.1-11.3c-1.9-4.1-4.8-8.4-5.6-12.9c-1.3-6.6,2.6-13.3,1.6-20.2
			c-0.9-6-3.8-11.4-8.2-15.5c-6.1-5.6-12.9-9.5-11.7-19.1c2-15.4,18.1-26.2,30.2-33.7c12.2-7.6,25.3-13.7,37-22.2
			c11.7-8.5,21.8-19.2,26.4-33.1C922.5,684,919.6,683.2,919,685L919,685z"/>
	</g>
</g>
<g>
	<g>
		<path class="st3" d="M910,680.9c-18.2,31.7-45.5,54.8-78.2,70.6c-16.8,8.1-34.2,14.9-50.8,23.6c-3.9,2-7.8,4.2-11.6,6.5
			c-2.2,1.3-5.1,2.8-5.5,5.7c-0.4,3.1,2.3,6.8,3.5,9.3c2.3,4.7,4.5,9.3,6.7,14c2.5,5.2,5,10.4,7.5,15.6c2.3,4.8,5.7,10,6.4,15.3
			c1.3,10.5-2.2,21.5-7.9,30.2c-1.1,1.6,1.5,3.1,2.6,1.5c4.3-6.6,7.2-14,8.1-21.9c0.5-3.9,0.7-8.3,0-12.2c-0.7-3.6-3-7.1-4.6-10.4
			c-4.4-9.2-8.8-18.3-13.2-27.4c-1-2-2-4.1-3-6.1c-1.5-3.2-4.4-7.5-0.7-10c3.9-2.6,8.2-4.8,12.3-7c32-16.8,66.9-27.5,94.6-51.6
			c14.4-12.5,26.6-27.5,36.1-44C913.5,680.8,911,679.3,910,680.9L910,680.9z"/>
	</g>
</g>
<g>
	<g>
		<path class="st3" d="M719.1,863.6c2.4,5.2,9.2,5.2,13.4,2.1c6.6-4.9,5.5-15.4,7.9-22.4c3.4-9.7,10.5-18,19.5-23
			c8.4-4.6,17.5-5.5,25.3-11.6c8.6-6.7,17.2-14.3,24.2-22.7c6.8-8.1,10.8-18.1,18.8-25.2c9-7.9,19.2-14.6,28.8-21.7
			c9.3-6.9,18.4-14,27.9-20.5c5.2-3.5,10.6-6.5,16.8-8.1c4.5-1.2,8.9-2.2,12.7-5.1c7.1-5.5,10.3-15.9,19.2-19c1.8-0.6,1-3.5-0.8-2.9
			c-6.4,2.3-10.1,7.6-14.1,12.8c-2.3,3.1-4.8,6.2-8.2,8.1c-4.6,2.7-10.2,3-15.2,5c-9.3,3.7-17.1,10.3-25,16.1
			c-8.8,6.6-17.7,13.1-26.6,19.7c-8.1,6-17.3,11.6-23.6,19.5c-2.7,3.4-4.7,7.2-7,10.9c-3,4.8-6.6,9.2-10.6,13.3
			c-7.3,7.5-15.8,16.2-25.1,21.2c-7.9,4.2-16.6,5.2-24,10.6c-7,5.1-12.4,12.2-15.5,20.3c-1.8,4.8-2.2,9.7-3.4,14.7
			c-0.7,2.8-1.7,5.9-4.2,7.6c-2.8,1.9-7.1,2.2-8.8-1.3C720.9,860.3,718.3,861.9,719.1,863.6L719.1,863.6z"/>
	</g>
</g>
<g>
	<g>
		<path class="st3" d="M693.6,884.1c-6.6-20.2,4.5-40.8,19-54.6c15.4-14.6,35.2-23.4,52.1-36c16.6-12.5,29.4-28.9,46.9-40.3
			c16-10.4,33.4-18.1,50.5-26.4c18.7-9.1,37.2-19,52.5-33.3c1.4-1.3-0.7-3.4-2.1-2.1c-29.4,27.7-69.8,37.8-103,59.7
			c-18.2,11.9-31.4,29.2-49,41.9c-17,12.2-36.7,21.2-51.6,36.1c-14.3,14.4-24.8,35.4-18.1,55.8C691.3,886.7,694.2,885.9,693.6,884.1
			L693.6,884.1z"/>
	</g>
</g>
<g>
	<g>
		<path class="st3" d="M651.8,845.8c2-20.2,18.1-34.9,35-44c9.4-5.1,19.3-9,29.1-13.2c9.6-4.1,19-8.8,28.2-13.7
			c20.1-10.7,40-21.8,59.9-32.7c10-5.4,20-10.8,29.6-16.8c8.8-5.5,17-11.9,25.4-18c19.6-14.3,41-25.4,64.2-32.7
			c1.8-0.6,1-3.5-0.8-2.9c-20.4,6.4-39.8,15.7-57.5,27.7c-9.5,6.5-18.4,13.8-28,20.2c-9.4,6.2-19.3,11.6-29.2,17
			c-21.2,11.5-42.2,23.2-63.5,34.6c-10,5.4-20.2,10.5-30.7,14.9c-10,4.3-20.3,8.3-29.8,13.7c-17.3,9.7-32.9,25.1-35,45.8
			C648.6,847.8,651.6,847.8,651.8,845.8L651.8,845.8z"/>
	</g>
</g>
<g>
	<g>
		<path class="st3" d="M586.2,813.1c1.9,0,1.9-3,0-3S584.3,813.1,586.2,813.1L586.2,813.1z"/>
	</g>
</g>
<g>
	<g>
		<path class="st3" d="M555.7,850.3c4.9-27.3,15.6-57.4,36.1-77c10.3-9.8,23.3-15.4,36.5-19.8c14.1-4.7,28.5-9.4,43.1-11.9
			c7.3-1.2,14.7-1.8,22.1-1.2c8.3,0.6,16.2,3.1,24.2,5.3c12.7,3.5,24.7,4.9,37.7,1.8c15-3.6,29.7-9.1,44.4-13.8
			c14-4.4,28.2-8.4,41.9-13.7c12.8-4.9,23.5-11.6,32.2-22.2c4.9-5.9,9.6-11.7,15.9-16.1c6.5-4.5,13.7-7.4,21.4-8.9
			c1.9-0.4,1.1-3.3-0.8-2.9c-12.3,2.5-23.5,8.6-32,17.9c-4.6,5-8.5,10.8-13.5,15.5c-5,4.6-10.8,8.1-17,11
			c-13.8,6.4-28.8,10.2-43.2,14.8c-14.9,4.8-29.8,9.9-44.8,14.2c-7.4,2.1-15,3.7-22.8,3.3c-8.1-0.4-16-2.9-23.8-5.1
			c-13.6-3.8-26.8-5.1-40.9-2.9c-14.8,2.2-29.2,7-43.4,11.6c-12.7,4.2-25.4,9.2-35.8,17.9c-23.4,19.4-35.3,52.6-40.5,81.6
			C552.4,851.4,555.3,852.2,555.7,850.3L555.7,850.3z"/>
	</g>
</g>
<g>
	<g>
		<path class="st3" d="M503,857c24.1-19.8,20-54.3,33.7-79.9c15.7-29.2,49.7-39.8,78.4-51.4c15-6.1,29-14.3,43.8-20.9
			c15.7-7,32.7-8.5,48.8-14c15.8-5.3,30.6-12.6,47.1-16c16.8-3.4,34-5.3,51-7.7c10.1-1.4,20.2-2.8,30.2-4.3
			c9.9-1.4,19.6-2.8,29.6-1.7c9.3,1.1,18.3,3.6,27.5,4.8c2.8,0.4,13.2,2.4,12.5-3.6c-0.1-0.7-0.4-1.2-1.1-1.5
			c-0.2-0.1-0.4-0.2-0.7-0.3c-1.8-0.7-2.6,2.2-0.8,2.9c0.2,0.1,0.4,0.2,0.7,0.3c-0.4-0.5-0.7-1-1.1-1.5c0.3,2.8-24.3-2.2-26.9-2.6
			c-7.6-1.5-15.3-2.5-23-2c-16.6,1-33.3,4.3-49.7,6.7c-16.7,2.3-33.5,4.2-50,7.6c-16.2,3.3-30.7,10.6-46.2,15.8
			c-15.1,5.1-31.2,6.6-46,12.7c-15.6,6.5-30,15.4-45.7,21.8c-26.6,10.8-56.3,20.1-74.8,43.7c-10.3,13.2-13.9,29.2-17.7,45.2
			c-3.8,16-8.7,32.7-21.9,43.6C499.4,856.1,501.5,858.2,503,857L503,857z"/>
	</g>
</g>
<g>
	<g>
		<path class="st3" d="M481.3,769.9c5.4,9.1,16,13.4,26.3,12.8c13.2-0.8,24.6-8.8,34.9-16.4c5.5-4,10.9-8.1,16.8-11.4
			c7.2-4,15-6,23-7.4c7.3-1.2,14.6-2.1,21.8-3.9c8-2,15.8-4.7,23.7-7.2c30.3-9.5,62.6-12.1,94-16.4c31.7-4.3,64-7.1,95.2-14.3
			c16-3.7,31.5-9.3,45.8-17.5c7.5-4.3,14.3-10.2,23.3-10.9c4.7-0.4,11-1.4,10.1-7.6c-0.3-1.9-3.3-1.9-3,0c0.7,5.1-9.5,4.5-12.5,5.3
			c-2.2,0.6-4.3,1.6-6.3,2.6c-6.1,3.2-11.7,7.3-17.8,10.5c-12.8,6.7-26.4,11.4-40.4,14.6c-28.6,6.5-58.3,9.2-87.4,13.2
			c-29.5,4-60,6.5-88.9,13.8c-13.5,3.4-26.6,8.8-40.2,11.7c-13.1,2.8-26.6,3.1-38.8,9.1c-13.3,6.5-23.7,17.4-36.8,24.1
			c-12.9,6.5-31.6,7.9-40-6.4C482.9,766.8,480.3,768.3,481.3,769.9L481.3,769.9z"/>
	</g>
</g>
<g>
	<g>
		<path class="st3" d="M470.9,776.8c1.7-7.6,9.3-12.7,16.9-11.2c1.9,0.4,2.7-2.5,0.8-2.9c-9.2-1.9-18.6,4-20.6,13.3
			C467.6,777.9,470.5,778.7,470.9,776.8L470.9,776.8z"/>
	</g>
</g>
<g>
	<g>
		<path class="st3" d="M483.7,759.9c-2.3,3.1-2.3,7.6,0,10.8c1.1,1.5,3.7,0,2.6-1.5c-1.8-2.4-1.8-5.3,0-7.7
			C487.4,759.9,484.8,758.4,483.7,759.9L483.7,759.9z"/>
	</g>
</g>
<g>
	<g>
		<path class="st3" d="M490.6,677.2c6.7-7.2,17.6-17.9,28-10.8c4.4,3,6.6,9.2,8.3,14.1c1.7,5,2.4,10,3.2,15.2
			c0.8,5,3.5,10.4,9.5,8.2c4.5-1.7,8.5-6.5,12-9.5c4.5-3.9,9-7.8,13.5-11.7c-0.7,0-1.4,0-2.1,0c13.5,16.4,36.4,10,53.3,3.8
			c10.3-3.8,20.6-6.8,31.4-8.6c10.3-1.8,20.7-2.9,31-5c9.8-2,19.6-4.8,28.5-9.6c10.7-5.9,18.7-14.7,30.6-18.6
			c23.5-7.6,49.2-14,74-13.8c26.4,0.2,53,11.3,79.2,3.5c1.3-0.4,1.5-2.6,0-2.9c-2-0.4-4-0.8-6-1.3c-1.9-0.4-2.7,2.5-0.8,2.9
			c2,0.4,4,0.8,6,1.3c0-1,0-1.9,0-2.9c-22.8,6.9-46.1-1.3-69-3.2c-23.7-2-47.2,3.3-69.9,9.4c-10.7,2.9-21.3,5.5-30.4,12.2
			c-8.9,6.6-17,12.6-27.7,16.2c-19.3,6.5-40,6.7-59.6,11.6c-20.4,5.1-50.8,24.3-68.4,2.9c-0.5-0.7-1.6-0.5-2.1,0
			c-4.5,3.9-9,7.8-13.5,11.7c-3.5,3.1-13.2,13.7-15.9,5.6c-1.5-4.3-1.3-9.4-2.5-13.8c-1.2-4.6-2.9-9.2-5.2-13.3
			c-3.6-6.7-9.7-10.4-17.5-9.2c-8.4,1.3-14.5,7.6-20,13.6C487.1,676.5,489.3,678.6,490.6,677.2L490.6,677.2z"/>
	</g>
</g>
<g>
	<g>
		<path class="st3" d="M576.4,614.2c10.8-0.9,21.9-1.8,32.5,0.8c11,2.7,17.8,9.9,25.9,17.2c5.8,5.3,12.8,9.7,20.9,8.2
			c9.6-1.8,16.8-10.1,23.3-16.9c7.9-8.4,15.7-15.9,27-19.2c11.5-3.3,23.8-3.5,35.6-4.3c25.1-1.9,50.3-3.2,75.4-0.8
			c14,1.4,27.5,4.7,41.2,7.5c12.3,2.5,24.9,3.8,36.9-0.8c1.8-0.7,1-3.6-0.8-2.9c-12.1,4.5-24.7,3-37.1,0.4
			c-11.2-2.4-22.3-5-33.7-6.5c-24.7-3.1-49.6-2.2-74.4-0.5c-20.4,1.4-44.4,0.3-61.1,14c-8.4,6.9-14.7,16.2-23.5,22.5
			c-4.6,3.3-10.1,5.7-15.9,4.3c-5.2-1.3-9.5-5-13.3-8.6c-7.6-7.2-14.6-13.6-24.9-16.3c-11.1-2.9-22.7-2-34-1.1
			C574.5,611.4,574.5,614.4,576.4,614.2L576.4,614.2z"/>
	</g>
</g>
<g>
	<g>
		<path class="st3" d="M1006.7,591.7c-1.1,10,9.2,16.2,18.1,15.3c5.9-0.6,11.2-3.4,16.3-6.2c6.3-3.6,12.5-7.4,18.7-11
			c25.3-15,51.3-29.8,80.3-35.8c14.8-3.1,30.2-3.9,45.1-1.1c13.2,2.5,25.3,9.3,38.7,11.2c13.1,1.9,24.2-3.6,36.2-7.8
			c7.1-2.5,14.2-3.7,21.7-2.5c6.6,1.1,12.8,3.5,19.1,5.5c6.3,2,13,3.6,19.7,3.1c7.2-0.5,13.9-3.3,20.3-6.2
			c14.2-6.3,27.2-14.7,39.2-24.6c1.5-1.2-0.6-3.3-2.1-2.1c-10.6,8.8-22.2,16.3-34.6,22.2c-5.8,2.8-11.9,5.6-18.2,7
			c-7.2,1.6-14.2,0.5-21.1-1.6c-11-3.2-21.9-8.1-33.7-6.5c-12.1,1.6-22.6,8.7-34.7,10.5c-13.8,2.1-26.7-4.6-39.5-8.6
			c-12-3.7-24.6-5-37.1-4.2c-25.6,1.5-49.8,10.9-72.3,22.7c-13.5,7-26.5,15-39.5,22.7c-6.2,3.7-12.6,8.1-19.7,9.8
			c-7.9,1.9-19.1-1.8-18-11.7C1009.9,589.8,1006.9,589.8,1006.7,591.7L1006.7,591.7z"/>
	</g>
</g>
<g>
	<g>
		<path class="st3" d="M945.7,373.4c2-1.8,3.8-2.5,6.4-2.9c-0.6-0.4-1.2-0.7-1.8-1c4.5,15.7-7,30-11.9,44.2
			c-4.7,13.3-4.1,28.3,1.5,41.3c2.7,6.4,7,11.8,10.3,17.9c2,3.6,3.5,7.6,3.2,11.9c-0.3,5-3.2,9.5-5.3,14
			c-6.7,13.8-8.3,29.1-8.8,44.2c-0.1,3.5-2.4,14.7,2.5,16.2c3.1,1,5.2-3.2,2.6-5.1c-1.6-1.1-3.1,1.5-1.5,2.6
			c-2.3-1.6-0.6-12.9-0.5-15.5c0.2-4.1,0.4-8.2,0.8-12.3c1-9.6,3-19.1,7.2-27.8c3-6.4,6.9-12.4,6-19.8c-0.9-7.3-5.7-13.4-9.5-19.5
			c-9.3-14.9-11-33.1-4.7-49.5c5.4-14,15.6-27.9,11.1-43.5c-0.2-0.9-1-1.2-1.8-1c-3.1,0.5-5.4,1.6-7.7,3.7
			C942.1,372.5,944.2,374.6,945.7,373.4L945.7,373.4z"/>
	</g>
</g>
<g>
	<g>
		<path class="st3" d="M662.3,516.8c0-0.2,0-0.3,0.1-0.5c0.1-0.7-0.5-1.3-1.1-1.5c-3.7-1.3-4.3,3.3-1,4.6c3,1.2,7.5,0.3,10.6,0.1
			c4.6-0.4,9.2-1.1,13.8-1.8c10.1-1.7,20.3-3.7,30.5-2.6c10,1.1,18.8,6.3,28.7,7.7c9.9,1.3,20.2-1.6,30.2-1.5
			c10.9,0.1,21.7,1.8,32.3,3.9c20.5,4.1,40.8,9.2,61.1,13.8c21.9,5,43.3,12,61.1,26.2c1.5,1.2,3.6-0.9,2.1-2.1
			c-28-22.2-64.1-27.3-98-35.1c-18.4-4.2-36.9-9-55.8-9.6c-9.8-0.3-19.3,1.9-29,1.7c-9.5-0.2-17.9-5.1-27.1-7.1
			c-9-2-18.2-1.1-27.2,0.2c-4.8,0.7-9.5,1.6-14.2,2.3c-3.1,0.5-6.3,0.9-9.4,1.1c-0.9,0.1-1.8,0.1-2.7,0.2c-0.7,0-7.2,0.9-6.8,1
			c-0.4-0.5-0.7-1-1.1-1.5c0,0.2,0,0.3-0.1,0.5C659.1,518.7,662.1,518.7,662.3,516.8L662.3,516.8z"/>
	</g>
</g>
<circle class="st5" cx="947.7" cy="621.2" r="58.9"/>
<g>
	<g>
		<path class="st3" d="M920.2,555.5c-1.3,0.7-2.6,1.4-3.9,2.1c-1.7,0.9-0.2,3.5,1.5,2.6c1.3-0.7,2.6-1.4,3.9-2.1
			C923.4,557.2,921.9,554.6,920.2,555.5L920.2,555.5z"/>
	</g>
</g>
<g>
	<g>
		<path class="st3" d="M913,562.3c1.6-0.7,3.2-1.2,4.9-1.6c1.8-0.4,2.8-1.3,1.7,0.9c-0.7,1.4-2.3,3.6-1.7,5.3
			c1.4,3.9,8.5-1.3,10.9-1.2c-0.4-0.3-0.9-0.5-1.3-0.7c-0.3,0.9-0.8,1.7-1.5,2.5c-0.6,0.8-0.6,2.3,0.7,2.5c1,0.2,1.5,0.1,2.3-0.6
			c1.5-1.2-0.7-3.3-2.1-2.1c-0.1,0.1-0.2,0.2-0.3,0.3c0.5-0.1,1-0.3,1.5-0.4c-0.2,0-0.3,0-0.5-0.1c0.2,0.8,0.4,1.7,0.7,2.5
			c1.4-1.8,3.1-3.8,1.9-6.1c-0.2-0.5-0.8-0.7-1.3-0.7c-1.5-0.1-2.7,0.5-4.1,1c-0.9,0.3-3.8,2-4.6,1.5c0.3,0.4,0.5,0.9,0.7,1.3
			c-0.2-2.4,4.9-7,1.5-9c-2.7-1.6-8.3,1.2-10.8,2.3C909.8,560.4,911.3,563,913,562.3L913,562.3z"/>
	</g>
</g>
<g>
	<g>
		<path class="st3" d="M925.5,554.7c1.2-0.8,5.1-3.7,6.4-3c0.8-0.4,0.9-0.3,0.1,0.3c-0.6,0.5-1.1,1.1-1.7,1.6
			c-1.1,1.2-2.6,2.2-1.8,3.9c1.7,3.8,11.2-1,13.6-1.8c-0.6-0.7-1.1-1.5-1.7-2.2c-1.6,2.8-5.1,3.8-7.3,6.1c-0.9,1,0,3.1,1.5,2.5
			c5-2,10.2-3.7,15.5-5.1c1.9-0.5,1.1-3.4-0.8-2.9c-5.3,1.3-10.4,3-15.5,5.1c0.5,0.8,1,1.7,1.5,2.5c2.5-2.6,5.9-3.5,7.8-6.7
			c0.6-1.1-0.4-2.6-1.7-2.2c-2.2,0.7-4.4,1.2-6.6,2c-2.8,1-2.4,1-0.6-0.7c1.5-1.4,2.8-2.3,2.4-4.5c-0.1-0.5-0.6-1-1-1
			c-3.9-0.8-8.4,1.3-11.5,3.5C922.5,553.2,924,555.8,925.5,554.7L925.5,554.7z"/>
	</g>
</g>
<g>
	<g>
		<path class="st3" d="M946.8,548.3c0.4,0.3,4.1,3.2,4.6,3c-0.5-0.4-0.9-0.4-1.3,0c-0.3,0.3-0.7,0.5-1.1,0.8c-1,0.7-1.9,1.3-2.9,1.9
			c-1,0.6-0.9,1.9,0,2.6c1.7,1.2,4.7,1.3,6.5,0.1c-0.6,0.4-1,1.4-0.5,2c0.8,1.1,2.2,1.7,3.4,0.7c1.5-1.1,0-3.7-1.5-2.6
			c0.2,0.1,0.5,0.2,0.7,0.3c-0.2,0.7-0.4,1.4-0.5,2c1.5-1,1.9-2.9,0.6-4.3c-2.1-2.3-5,0.4-7.1-1c0,0.9,0,1.7,0,2.6
			c1.7-1.1,3.4-2.2,5-3.4c0.8-0.6,1.5-1.3,1.5-2.4c0-1-0.5-1.5-1.3-2.1c-1.4-1.1-3.1-2-4.6-3C946.7,544.7,945.2,547.3,946.8,548.3
			L946.8,548.3z"/>
	</g>
</g>
<g>
	<g>
		<path class="st3" d="M962,547.4c-1.1,2.3-2.4,4.5-3.3,6.9c-0.3,0.8-0.6,1.6-0.2,2.5c0.6,1.2,2.4,1.7,3.5,2.2
			c0.8,0.4,2,0.6,2.2,1.4c0.2,0.8-0.9,2.3-1.2,3.1c-0.7,1.8,1.8,3.3,2.6,1.5c0.9-2.1,3.1-5,1-7c-0.5-0.5-1.3-0.7-1.9-1.1
			c-0.3-0.2-3.2-1.2-3.3-1.5c-0.2-0.6,2.9-5.7,3.3-6.5C965.5,547.2,962.9,545.7,962,547.4L962,547.4z"/>
	</g>
</g>
<g>
	<g>
		<path class="st3" d="M973.7,551.3c-3.2-0.1-6.8,2.2-6.5,5.8c0.2,1.5,0.9,2.2,2.2,3c1.3,0.9,2.6,1.4,3.5,2.8
			c1.5,2.4,0.8,5.6-2.1,6.6c-1.8,0.6-1,3.5,0.8,2.9c3.5-1.2,5.7-4.6,4.9-8.4c-0.4-1.9-1.5-3.5-2.9-4.8c-0.7-0.6-1.7-1-2.4-1.6
			c-1.9-1.8,0-3.5,2.4-3.4C975.6,554.4,975.6,551.4,973.7,551.3L973.7,551.3z"/>
	</g>
</g>
<g>
	<g>
		<path class="st3" d="M984,555.5c-2.8,1.6-8.7,5.7-7.2,9.7c0.5,1.4,2,2.3,3.3,2.8c1.1,0.4,3.1,0.2,4.1,0.8c3.8,2.7-0.2,3.8-1.7,4.4
			c-1.8,0.8-0.2,3.3,1.5,2.6c3.3-1.5,7.5-4.1,4.2-8c-1.4-1.6-3.3-1.9-5.3-2.3c-0.9-0.1-1.8-0.3-2.6-0.7c-0.7-1.4-0.4-2.6,0.9-3.4
			c1.2-1.4,2.7-2.4,4.3-3.3C987.2,557.1,985.7,554.5,984,555.5L984,555.5z"/>
	</g>
</g>
<g>
	<g>
		<path class="st3" d="M993.3,560c-2.3,2.1-4.8,4.3-6.7,6.9c-1,1.3-1.2,2.7,0,4c1.4,1.5,3.7,1.6,5.6,1.8c1.1,0.1,4.1,0.2,4.6,1.4
			c0.1-0.7-0.1-0.7-0.7,0.1c-0.3,0.3-0.7,0.6-1.1,0.8c-1.1,0.6-2.3,1-3.5,1.1c-1.9,0.2-1.9,3.2,0,3c2.8-0.3,11.4-3.5,7-7.3
			c-2-1.7-4.7-1.7-7.1-2.1c-0.5-0.1-2.4-0.2-2.6-0.8c-0.1-0.3,1.8-1.9,2-2.1c1.5-1.5,3-3,4.5-4.5C996.8,560.7,994.7,558.6,993.3,560
			L993.3,560z"/>
	</g>
</g>
<g>
	<g>
		<path class="st3" d="M1005.9,561.5c-4,2.5-8.3,5.6-10.3,10c-0.7,1.4-1,2.8-0.5,4.4c1,2.7,7.3,7.2,0.3,9.2
			c-1.8,0.5-1.1,3.4,0.8,2.9c3.5-1,6.2-2.9,5.4-7c-0.4-2-2-3.3-2.7-5c-2.1-5.5,4.7-9.6,8.4-12C1009,563.1,1007.5,560.5,1005.9,561.5
			L1005.9,561.5z"/>
	</g>
</g>
<g>
	<g>
		<path class="st3" d="M998.3,588.5c1.7-1,3.3-1.9,5.1-2.6c2.8-1.1,2.9-0.8,6.3,0.4c1.3,0.4,1.6,1,3.1,0.5c3-0.9,5.4-3.9,8.3-5.1
			c3-1.3,5.7-0.6,8.5,0.3c1.2,0.4,1.6,1,2.9,1.1c1.9,0.3,2.7-2.6,0.8-2.9c-3.6-0.5-4.8-4-8.8-3.3c-4.1,0.7-7.2,4.2-10.9,6
			c-2.3,1.1-1.7,0.5-3.7-0.4c-1-0.5-2-0.6-3.2-0.5c-3.4,0.1-7.1,2.3-10,4C995.1,586.9,996.6,589.5,998.3,588.5L998.3,588.5z"/>
	</g>
</g>
<g>
	<g>
		<path class="st3" d="M1005.6,591c-1.3,0.4-2.4,0.7-3.8,0.9c0.3,1,0.5,1.9,0.8,2.9c3.6-0.8,6.4-0.6,10.1-0.1
			c1.3,0.2,2.5,0.5,3.8,0.3c1.2-0.1,1.9-0.5,3-0.8c2.7-0.8,4.5-1,7.3-1c3.8-0.1,14.1-2.5,14.9-6.9c0.3-1.9-2.5-2.7-2.9-0.8
			c-0.2,1.1-5.5,3.1-6,3.3c-1.9,0.7-3.9,1.3-6,1.3c-2.3,0.1-4.1-0.5-6.3,0.2c-1.1,0.4-2.2,1.2-3.3,1.5c-2.1,0.5-3.6-0.3-5.5-0.4
			c-3.4-0.3-6.4-0.3-9.8,0.5c-1.9,0.4-1.1,3.2,0.8,2.9c1.3-0.2,2.5-0.5,3.8-0.9C1008.2,593.3,1007.5,590.4,1005.6,591L1005.6,591z"
			/>
	</g>
</g>
<g>
	<g>
		<path class="st3" d="M1003.9,597.1c3.7-1.3,7.4-2.9,10.9-4.8c2.8-1.5,6.9-3.1,8.4-6c0.6-1.1-0.4-2.6-1.7-2.2
			c-1,0.3-1.3,0.7-1.7,1.6c-0.7,1.8,2.2,2.6,2.9,0.8c-0.2,0.2-0.3,0.3-0.4,0.5c-0.6-0.7-1.1-1.5-1.7-2.2c-1.3,2.4-6,4.3-8.5,5.5
			c-2.9,1.5-6,2.8-9,3.9C1001.3,594.8,1002,597.7,1003.9,597.1L1003.9,597.1z"/>
	</g>
</g>
<g>
	<g>
		<path class="st3" d="M1004.1,589.7c2.6-2.1,7.6-6.1,11-6.5c2.5-0.2,1.7,1.1,3.3,2.5c4.1,3.4,11.6-3,14.9-4.9
			c1.7-1,0.2-3.5-1.5-2.6c-2.8,1.6-8.9,6.4-11.8,4c-1-0.8-0.7-2.1-2.4-2.5c-4.8-1.1-12.3,5-15.6,7.8
			C1000.5,588.8,1002.6,590.9,1004.1,589.7L1004.1,589.7z"/>
	</g>
</g>
<g>
	<g>
		<path class="st3" d="M1003.4,596.6c3.3-0.8,8.7-2.3,8.6,3c0,0.6,0.5,1.3,1.1,1.5c1.4,0.3,1.9,0,3-0.8c3-2.2,5-3.9,8.7-4.8
			c1.9-0.5,1.1-3.3-0.8-2.9c-1.9,0.5-3.7,1.1-5.4,2c-0.6,0.3-4.4,3.6-4.6,3.6c0.4,0.5,0.7,1,1.1,1.5c0.2-7.6-6.6-7.4-12.4-5.9
			C1000.8,594.2,1001.5,597.1,1003.4,596.6L1003.4,596.6z"/>
	</g>
</g>
<g>
	<g>
		<path class="st3" d="M1004.7,601.8c2.8-4.7,6.5,3.5,9.5,2.7c1.1-0.3,2.1-1.6,3-2.3c2.4-1.8,5-2.9,7.9-3.6
			c-0.4-0.9-0.8-1.8-1.2-2.7c-1.3,0.8-2.7,1.6-4,2.4c-1.7,1-0.1,3.6,1.5,2.6c1.3-0.8,2.7-1.6,4-2.4c1.4-0.9,0.5-3.2-1.2-2.7
			c-2.7,0.7-5.3,1.7-7.7,3.3c-0.5,0.3-3.3,2.8-3.5,2.7c0.5,0.1-1.7-2.3-1.8-2.5c-3-2.2-7-2.4-9.2,1.1
			C1001.1,601.9,1003.7,603.4,1004.7,601.8L1004.7,601.8z"/>
	</g>
</g>
<g>
	<g>
		<path class="st3" d="M1010.6,606c-0.3,0.2,3.5,4.9,4,5.2c2,1.2,4-0.7,5.5-1.7c1.6-1,0.1-3.7-1.5-2.6c-0.9,0.6-2,1.6-3.1,1.8
			c0.4,0,0.8,0.1,1.2,0.2c-2.8-1.2-3.6-7.6-7.6-5.5C1007.4,604.3,1008.9,606.9,1010.6,606L1010.6,606z"/>
	</g>
</g>
<g>
	<g>
		<path class="st3" d="M1009.9,614.5c0.6-1,2.1-2.9,2.5-0.8c0.2,1,0.2,1.9,0.7,2.8c1.4,2.3,3.9,1.3,5.6,0c1.5-1.2-0.6-3.3-2.1-2.1
			c-0.8,0.7-1,0.7-1.2-0.2c-0.1-0.5-0.1-1.1-0.2-1.6c-0.2-1-0.8-2-1.7-2.5c-2.6-1.4-4.9,0.9-6.2,3
			C1006.3,614.7,1008.9,616.2,1009.9,614.5L1009.9,614.5z"/>
	</g>
</g>
<g>
	<g>
		<path class="st3" d="M921.5,562.5c-4.5-2.3-8.7-0.5-12.1,3c-5.5,5.7-10.4,12.2-15.5,18.3c-1,1.2,0.3,3.4,1.8,2.4
			c1.3-1.1,3-1.7,4.8-1.6c-0.5-0.6-1-1.3-1.5-1.9c-2.1,6-5,11.5-8.7,16.7c-1,1.5,1.2,2.9,2.4,1.8c1.6-1.5,2.1-2.6,2.4-4.8
			c0.2-1.4-1.7-1.8-2.6-1.1c-3.1,2.5-5.8,5.3-8.3,8.4c0.8,0.3,1.7,0.7,2.6,1.1c0.4-5.5,0.8-11.1,1.3-16.6c0.1-1.2-1.8-2.1-2.6-1.1
			c-4.9,6.1-8.3,13.3-9,21.2c-0.6,6.2,4.3,7.7,8.2,3c-0.8-0.1-1.6-0.2-2.4-0.3c1.7,2.5,0.5,6.6,0.1,9.3c-0.4,2.9-0.7,5.7-1.1,8.6
			c-0.2,1.6,2,1.8,2.8,0.8c2.3-3.3,4.5-6.6,6.8-9.8c-0.9-0.4-1.8-0.8-2.7-1.2c-1.3,6.3-3,12.4-5.4,18.4c-0.6,1.6,1.5,2.3,2.5,1.5
			c1.6-1.3,3.2-2.6,4.8-3.8c-0.8-0.1-1.6-0.2-2.4-0.3c2.6,3.4-1,8.8-0.4,12.8c0.2,1.1,1.8,1.5,2.5,0.7c1.5-1.7,3-3.4,4.5-5
			c-0.8-0.3-1.7-0.7-2.6-1.1c-0.4,3.4-1.2,6.6-2.5,9.8c-0.6,1.5,1.5,2.4,2.5,1.5c1.2-1.2,2.5-2.2,4-3c-0.8-0.4-1.5-0.9-2.3-1.3
			c-0.3,4-1,8-2.1,11.9c-0.2,0.8,0.5,2,1.5,1.9c1.2-0.2,2.3-0.3,3.5-0.5c-0.5-0.4-1-0.7-1.5-1.1c0.7,2.7,0.9,5.3,0.9,8.1
			c0,0.8,0.7,1.5,1.5,1.5c3.2,0.2,2.5,9,6.4,10.3c2.5,0.8,4.5-0.4,5.4-2.7c-1,0-1.9,0-2.9,0c0.6,3.8,1.3,7.5,2.2,11.2
			c0.3,1.5,2.5,1.4,2.9,0c0.8-2.9,1.1-5.6,0.9-8.6c-0.1-1.9-3.1-1.9-3,0c0.2,2.7,0,5.2-0.8,7.8c1,0,1.9,0,2.9,0
			c-0.9-3.7-1.6-7.5-2.2-11.2c-0.3-1.6-2.4-1.2-2.9,0c-1.3,3.5-3.6-4.6-3.7-5c-0.3-0.9-0.7-2-1.2-2.8c-1.1-1.5-2.1-1.9-3.9-2
			c0.5,0.5,1,1,1.5,1.5c0-3-0.3-5.9-1-8.9c-0.1-0.6-0.8-1.2-1.5-1.1c-1.2,0.2-2.3,0.3-3.5,0.5c0.5,0.6,1,1.3,1.5,1.9
			c1.1-4.2,1.8-8.4,2.2-12.7c0.1-1.2-1.3-1.8-2.3-1.3c-1.8,1-3.2,2.1-4.7,3.5c0.8,0.5,1.7,1,2.5,1.5c1.4-3.5,2.3-6.8,2.7-10.6
			c0.1-1.3-1.7-2-2.6-1.1c-1.5,1.7-3,3.4-4.5,5c0.8,0.2,1.7,0.4,2.5,0.7c-0.8-4.9,3.5-9,0.1-13.5c-0.6-0.8-1.5-1-2.4-0.3
			c-1.6,1.3-3.2,2.6-4.8,3.8c0.8,0.5,1.7,1,2.5,1.5c2.3-6,4.1-12.1,5.4-18.4c0.3-1.7-1.8-2.6-2.7-1.2c-2.3,3.3-4.5,6.6-6.8,9.8
			c0.9,0.3,1.9,0.5,2.8,0.8c0.5-4.1,1.1-8.3,1.6-12.4c0.3-2.7,0.5-4.7-1-7c-0.5-0.7-1.7-1.1-2.4-0.3c-2.5,3.1-3.1-0.9-2.7-2.9
			c0.3-1.9,0.8-3.8,1.4-5.6c1.4-4.2,3.6-8,6.4-11.5c-0.8-0.3-1.7-0.7-2.6-1.1c-0.4,5.5-0.8,11.1-1.3,16.6c-0.1,1.2,1.8,2.1,2.6,1.1
			c2.5-3.1,5.3-5.8,8.3-8.4c-0.8-0.3-1.7-0.7-2.6-1.1c-0.5,0.9-1,1.8-1.5,2.7c0.8,0.6,1.6,1.2,2.4,1.8c3.8-5.4,6.8-11.2,9-17.5
			c0.3-0.9-0.5-1.9-1.5-1.9c-2.5,0.1-4.3,0.6-6.3,2c0.6,0.8,1.2,1.6,1.8,2.4c3.3-3.9,6.6-7.8,9.9-11.7c3-3.6,8.1-12.1,14.1-9.1
			C921.7,566,923.2,563.4,921.5,562.5L921.5,562.5z"/>
	</g>
</g>
<g>
	<g>
		<path class="st3" d="M886.7,607.2c-1.8,3.7-3.3,7.5-4.1,11.5c-0.3,1.7-1.6,5.5-0.3,7c3.1,3.5,7.8-4.3,10.1-5.4
			c-0.8-0.4-1.5-0.9-2.3-1.3c0.1,4.1-2.2,7.1-3.8,10.6c-0.5,1.1-1.8,3.2-1.4,4.5c0.3,1,1,1.2,1.7,1.8c1.4,1.5,1.3-2.2,1.5,1.9
			c0,0.5-0.7,2-0.8,2.5c-0.3,1.9,2.6,2.7,2.9,0.8c0.3-1.8,1.6-3.4,1.4-5.2c-0.3-1.9-1.1-1.8-2.3-2.9c-0.4-0.1-0.8-0.1-1.3-0.1
			c0.4-0.8,0.8-1.7,1.3-2.5c0.7-1.4,1.5-2.8,2.2-4.2c1.1-2.4,1.8-4.6,1.7-7.3c0-1.2-1.3-1.8-2.3-1.3c-1.3,0.7-4.7,5-5.6,4.9
			c-1.5-0.3,3.6-12.9,4.1-13.8C890.1,607,887.5,605.5,886.7,607.2L886.7,607.2z"/>
	</g>
</g>
<g>
	<g>
		<path class="st3" d="M863.4,643c3.7,1.4,6.5,4.2,9.5,6.6c1.6,1.3,3.8,3.5,6,3.5c5.4,0.2,5.3-14.1,12.7-6.3
			c1.3,1.4,3.5-0.7,2.1-2.1c-3.7-3.9-8.3-5.3-11.5-0.1c-1.2,1.9-1.6,5-4.6,4.8c-1.7-0.1-4.2-3.2-5.5-4.3c-2.5-2.1-5-3.8-8-5
			C862.4,639.4,861.6,642.3,863.4,643L863.4,643z"/>
	</g>
</g>
<g>
	<g>
		<path class="st3" d="M881.5,662.1c-0.5-0.3,2.3-4,2.5-4.3c1.2-1.3,2.6-2.4,4.1-3.2c2.4-1.2,4.6-1.3,5.8,1.6
			c0.6,1.5,0.7,3.5,1.2,5.1c0.3,0.8,1.4,1.5,2.2,0.9c0.5-0.4,1.1-0.8,1.6-1.2c1.5-1.2,0-3.8-1.5-2.6c-0.5,0.4-1.1,0.8-1.6,1.2
			c0.7,0.3,1.5,0.6,2.2,0.9c-0.8-2.8-0.6-7.1-3.2-9c-2.4-1.8-5.8-0.8-8.2,0.4c-3,1.5-11.8,9.4-6.6,12.7
			C881.7,665.8,883.2,663.2,881.5,662.1L881.5,662.1z"/>
	</g>
</g>
<g>
	<g>
		<path class="st3" d="M895.7,657.5c-1.5,3.8-4.7,12.5-1.4,16.3c1.4,1.5,2.9,1.4,4.8,1.8c2-0.5,2.2-0.2,0.7,1
			c-0.1,0.6-0.3,1.1-0.4,1.7c-0.8,2.1-1.1,4.6-1.7,6.8c-0.5,1.9,2.4,2.7,2.9,0.8c0.7-2.7,4.3-10.5,1.9-12.9c-2.1-2.2-4.1,2-6.4-2.9
			c-1.2-2.7,1.5-9.2,2.5-11.8C899.3,656.5,896.4,655.8,895.7,657.5L895.7,657.5z"/>
	</g>
</g>
<g>
	<g>
		<path class="st3" d="M903,665.7c-1,3.7-0.9,7.5,1.8,10.4c1.1,1.2,2.4,1.7,3.9,2.3c1.8,0.8,3.4,1.2,4.3,3c1.3,2.5,0.7,5.5,0,8
			c-0.5,1.9,2.4,2.7,2.9,0.8c1-3.8,1.5-8.1-1-11.5c-0.9-1.2-2-2-3.3-2.6c-1.1-0.5-2.5-0.5-3.5-1.2c-2.9-1.8-3-5.5-2.2-8.5
			C906.4,664.6,903.5,663.8,903,665.7L903,665.7z"/>
	</g>
</g>
<g>
	<g>
		<path class="st3" d="M912.6,673.9c-0.1,2.8-1,8.9,1.5,11c1,0.8,1.8,0.6,2.9,0.7c3.6,0.5,4.2,0.6,4.8,4c0.3,1.5-0.1,3.7-0.4,5.1
			c0.7-0.3,1.5-0.6,2.2-0.9c-0.3-0.2-0.5-0.4-0.8-0.5c-1.6-1.1-3.1,1.5-1.5,2.6c0.3,0.2,0.5,0.4,0.8,0.5c0.8,0.5,2,0,2.2-0.9
			c0.9-3.7,1.2-9-2-11.8c-1.4-1.2-2.4-1-4-1.3c-3.7-0.9-2.9-5.3-2.8-8.6C915.7,672,912.7,672,912.6,673.9L912.6,673.9z"/>
	</g>
</g>
<g>
	<g>
		<path class="st3" d="M921.3,680.8c-0.1,3,0.4,5.9,1.7,8.6c1.4,2.9,5.1,3.8,5.8,7.1c0.4,1.9,3.3,1.1,2.9-0.8
			c-0.5-2.1-1.5-3.7-3.3-5c-3.3-2.3-4.2-6-4.1-9.9C924.3,678.8,921.3,678.8,921.3,680.8L921.3,680.8z"/>
	</g>
</g>
<g>
	<g>
		<path class="st3" d="M928.9,683.2c0,3.8,0.5,7.7,1.7,11.3c0.4,1.3,1.1,2.4,1.7,3.6c1.3,2.5,1.3,4.6,1.2,7.3c-0.1,1.9,2.9,1.9,3,0
			c0.2-3.4-0.1-5.8-1.6-8.8c-2-4.2-3.1-8.6-3-13.3C931.9,681.2,928.9,681.2,928.9,683.2L928.9,683.2z"/>
	</g>
</g>
<g>
	<g>
		<path class="st3" d="M940.1,689.7c1.7,0.1,3.3,1.6,3.3,3.3c0.1,1.9,3.1,1.9,3,0c-0.2-3.4-2.9-6.2-6.3-6.3
			C938.2,686.7,938.2,689.7,940.1,689.7L940.1,689.7z"/>
	</g>
</g>
<g>
	<g>
		<path class="st3" d="M941.2,685.7c-0.2,0.2-0.4,0.4-0.6,0.6c-0.6,0.6-0.6,1.5,0,2.1s1.5,0.6,2.1,0c0.2-0.2,0.4-0.4,0.6-0.6
			c0.6-0.6,0.6-1.5,0-2.1S941.7,685.1,941.2,685.7L941.2,685.7z"/>
	</g>
</g>
<g>
	<g>
		<path class="st3" d="M926.1,692.2c-0.1,2,0.6,4.6,3,4.8c2.1,0.2,4-2.3,5.4-3.5c1.5-1.3-0.7-3.4-2.1-2.1c-0.9,0.8-1.7,1.6-2.7,2.3
			c-0.4,0.3-0.3,0.4-0.6,0.2c-0.3-0.3-0.2-1.3-0.1-1.6C929.2,690.3,926.2,690.3,926.1,692.2L926.1,692.2z"/>
	</g>
</g>
<g>
	<g>
		<path class="st3" d="M1013.5,618.1c-2.8,5.6,0.7,11.1,1.7,16.8c1.6,8.2,0.9,16.6-0.3,24.7c-1.1,7.2-3.1,14.3-3.9,21.6
			c-0.4,3.6,0.8,7.3,5.1,6.3c1.9-0.4,1.1-3.3-0.8-2.9c-2.4,0.6-0.5-8.4-0.3-9.4c0.5-2.8,1.1-5.5,1.6-8.3c0.9-5,1.8-9.9,2.2-15
			c0.4-4.7,0.4-9.5-0.2-14.2c-0.6-5.1-5.1-13.3-2.6-18.2C1016.9,617.9,1014.3,616.3,1013.5,618.1L1013.5,618.1z"/>
	</g>
</g>
<g>
	<g>
		<path class="st3" d="M1007.5,649.4c8.1,19.4-2,40.3,1.2,60.3c0.3,1.9,3.2,1.1,2.9-0.8c-3.2-20.1,6.9-40.8-1.2-60.3
			C1009.7,646.8,1006.8,647.6,1007.5,649.4L1007.5,649.4z"/>
	</g>
</g>
<g>
	<g>
		<path class="st3" d="M995.6,668.2c2.4,4.9,0.3,10.2-1.4,15c-1.5,4.5-3.3,8.9-5.2,13.2c-3.5,7.8-8,15-12.1,22.5
			c-6.6,12.2-11.4,26.3-4.9,39.6c0.8,1.7,3.4,0.2,2.6-1.5c-8.5-17.3,4.1-34.5,12.1-49.2c3.8-7.1,7.1-14.4,9.8-22
			c2.2-6.2,4.8-12.8,1.7-19C997.3,665,994.7,666.5,995.6,668.2L995.6,668.2z"/>
	</g>
</g>
<g>
	<g>
		<path class="st3" d="M972,678.5c2.3,11.1-4.5,22.6-9.2,32.3c-4.3,8.9-9.6,17.3-13.3,26.5c-6.2,15.4-6.3,33.3,2.6,47.7
			c1,1.6,3.6,0.1,2.6-1.5c-10.8-17.5-6.8-37.7,2.3-54.9c4.6-8.7,9.1-17.3,13-26.3c3.5-7.9,6.6-15.8,4.9-24.6
			C974.5,675.8,971.6,676.6,972,678.5L972,678.5z"/>
	</g>
</g>
<g>
	<g>
		<path class="st3" d="M938.1,679c1.5,4.9-3.6,8.8-6.5,12.1c-1.4,1.5-3.9,3.7-4,5.9c-0.1,1.6,0.6,2.5,1.8,3.2c0.5,0.3,2,0.2,2.3,0.6
			c1.2,1.5-4.3,5.9-5.2,6.5c-1.6,1.1-0.1,3.7,1.5,2.6c2.6-1.8,5.6-4.4,6.5-7.6c0.8-2.4-0.2-2.7-1.7-4.2c-1.3-1.3-1.7,1.4-0.9-2
			c0.4-1.9,1.5-2.8,2.7-4.2c1.4-1.6,2.9-3.1,4.1-4.8c2-2.8,3-5.6,2-9C940.5,676.3,937.5,677.1,938.1,679L938.1,679z"/>
	</g>
</g>
<g>
	<g>
		<path class="st3" d="M943.2,682c-1.1,0.9-2.1,1.7-3.2,2.6c-0.9,0.7-0.4,2.3,0.7,2.5c5.8,1.2,8.7,6.2,7.6,12
			c-0.4,2.4-1.8,4.8-1.1,7.3c0.8,2.5,3.4,3.6,5.2,5.4c2.2,2.3,3.8,5.2,5.8,7.7c4.1,5,9.2,9,14,13.1c6,5.1,13.5,11,13.1,19.8
			c-0.1,1.9,2.9,1.9,3,0c0.7-15.6-18.9-24.1-27.6-34.4c-2.6-3.1-4.8-6.4-7.4-9.4c-1.9-2.3-3.1-3.8-2.5-7.2c0.3-1.5,0.7-2.9,0.7-4.5
			c0-6.2-4-11.4-10.1-12.6c0.2,0.8,0.4,1.7,0.7,2.5c1.1-0.9,2.1-1.7,3.2-2.6C946.8,683,944.7,680.8,943.2,682L943.2,682z"/>
	</g>
</g>
<g>
	<g>
		<path class="st3" d="M990,663.5c15.5,10,25,24.2,26.7,42.7c1.5,16.9-1.6,34.3,3.4,50.8c4.5,14.7,14.4,27,25.3,37.5
			c11.2,10.8,24.1,22.8,39.9,25.8c1.9,0.3,2.7-2.5,0.8-2.9c-17-3.2-31.1-17-42.7-29c-12.2-12.6-21.3-27.3-23-45.1
			c-1.5-16.3,1.5-33.1-2.8-49.1c-3.8-14.3-14-25.3-26.2-33.3C989.9,659.8,988.4,662.4,990,663.5L990,663.5z"/>
	</g>
</g>
<g>
	<g>
		<path class="st3" d="M1005.1,646.5c20-0.7,27.3,21.1,29.1,37.3c1.6,15,1.2,31.5,10.4,44.3c8.5,11.8,23.2,17.4,36.6,21.8
			c17,5.5,34.7,8.4,52.6,8.8c1.9,0,1.9-3,0-3c-18.5-0.4-36.9-3.6-54.4-9.6c-16.8-5.8-32.7-13.7-38-32c-4.6-15.9-2.1-33.1-8-48.7
			c-4.5-11.8-14.8-22.3-28.2-21.8C1003.2,643.5,1003.2,646.5,1005.1,646.5L1005.1,646.5z"/>
	</g>
</g>
<g>
	<g>
		<path class="st3" d="M1008.4,658.8c13.6,29.8,29,58.7,46.3,86.6c8.6,13.8,17.5,27.3,26.9,40.5c4.5,6.3,9.5,12.4,13.3,19.2
			c1.8,3.2,3.2,6.6,4,10.2c0.6,2.9,1,5.9,2.4,8.5c2.6,4.7,8,6,12.8,3.9c6.1-2.6,8.6-9.2,10.7-15c0.7-1.8-2.3-2.6-2.9-0.8
			c-1.6,4.5-3.4,10-7.9,12.5c-6,3.4-10.2-0.7-11.6-6.4c-1.9-7.9-4.4-14.1-9-20.8c-10.2-14.7-20.7-29-30.3-44
			c-19.7-30.7-37.1-62.8-52.2-95.9C1010.2,655.6,1007.6,657.1,1008.4,658.8L1008.4,658.8z"/>
	</g>
</g>
<g>
	<g>
		<path class="st3" d="M1019.5,643.5c28.9-23.4,67.2-2,95.3,10.8c15.2,7,30.4,11.3,47.1,13.2c8.9,1,17.9,1.9,26.6,3.9
			c9,2.1,16.7,5.9,24.5,10.8c7.1,4.5,14.2,8.3,22.8,8.5c10.1,0.3,19.8-3.4,29-7c1.8-0.7,1-3.6-0.8-2.9c-9,3.5-18.4,7.2-28.2,6.9
			c-9.8-0.3-17.3-5.8-25.3-10.7c-14.6-8.9-31.1-10.6-47.7-12.5c-9.3-1.1-18.5-2.5-27.4-5.3c-9-2.9-17.6-6.8-26.1-10.9
			c-15-7.1-30.1-14.6-46.7-17.1c-15.9-2.4-32.4-0.3-45.2,10.1C1015.8,642.6,1018,644.7,1019.5,643.5L1019.5,643.5z"/>
	</g>
</g>
<g>
	<g>
		<path class="st3" d="M1005.5,651.1c16.6-10.2,35.8-3.2,51.3,5.5c15.8,8.8,31,18.8,45.8,29.2c14.9,10.4,29.2,21.4,43.5,32.6
			c12.5,9.8,25.3,19.6,39.7,26.7c14,6.9,33.1,13.5,48.1,6.5c1.8-0.8,0.2-3.4-1.5-2.6c-15.8,7.4-36.9-1.8-50.9-9.6
			c-14.8-8.3-27.9-19.1-41.3-29.5c-13.8-10.8-27.8-21.2-42.2-31c-14.7-10.1-29.8-20.2-45.8-28.2c-15-7.5-33.1-11.6-48.3-2.3
			C1002.3,649.5,1003.8,652.1,1005.5,651.1L1005.5,651.1z"/>
	</g>
</g>
<g>
	<g>
		<path class="st3" d="M1020.3,623.5c17.7-7.9,39.4-12.8,57.1-2.2c7.3,4.3,13.5,10.3,21.7,12.9c8.8,2.8,18.3,1.9,27.4,0.9
			c38.8-4.3,76.4,4.1,114.9,7c20.9,1.6,42,1,62.2-4.9c1.8-0.5,1.1-3.4-0.8-2.9c-38.3,11.1-78.1,2.7-116.7-1.6
			c-19.3-2.1-38.5-3-57.9-0.8c-10.1,1.1-20.8,2.5-30.6-1.4c-8.7-3.5-15.3-10.7-23.9-14.4c-17.8-7.8-38.1-2.7-55,4.9
			C1017,621.6,1018.6,624.2,1020.3,623.5L1020.3,623.5z"/>
	</g>
</g>
<g>
	<g>
		<path class="st3" d="M935.3,684.5c8.2,14.4-10.6,25.6-19.7,33.2c-10.4,8.7-20,18.3-28.8,28.7c-4,4.7-7.8,9.6-11.5,14.6
			c-3.3,4.6-7.8,9.6-8.9,15.3c-1.2,6.2,2,12.4,2.9,18.5c1.2,7.9,0.5,15.9-1.6,23.5c1,0.3,1.9,0.5,2.9,0.8c0.2-1.3,0.4-2.5,0.6-3.7
			c0.3-1.9-2.6-2.7-2.9-0.8c-0.2,1.3-0.4,2.5-0.6,3.7c-0.3,1.9,2.4,2.7,2.9,0.8c1.9-6.7,2.7-13.5,2.2-20.4c-0.3-3.3-0.8-6.7-1.6-9.9
			c-1.1-4.5-2.9-9-1.4-13.5c2.3-6.9,8.7-13.7,13.1-19.3c4.5-5.7,9.2-11.2,14.1-16.4c9.6-10.2,20.3-19,31-28
			c8.3-6.9,16-17.7,9.9-28.6C936.9,681.3,934.3,682.8,935.3,684.5L935.3,684.5z"/>
	</g>
</g>
<g>
	<g>
		<path class="st3" d="M867.3,817.4c-2.8,5.3-5.9,11.5-4,17.6c0.8,2.7,2.5,4.4,4.4,6.5c1.5,1.7,2.9,3.2,3.6,5.5
			c0.3,1,1.1,7.2-0.4,7.7c0.6,0.3,1.2,0.7,1.8,1c0-0.1-0.1-0.3-0.1-0.4c-0.3,0.6-0.7,1.2-1,1.8c0.1,0,0.2,0,0.3-0.1
			c1.9-0.5,1.1-3.4-0.8-2.9c-0.1,0-0.2,0-0.3,0.1c-0.8,0.2-1.3,1.1-1,1.8c0,0.1,0.1,0.3,0.1,0.4c0.2,0.8,1.1,1.3,1.8,1
			c4.5-1.4,3.2-10.1,1.8-13.2c-1.8-3.9-6-6.1-7.3-10.2c-1.7-5.3,1.2-10.8,3.7-15.3C870.8,817.2,868.2,815.7,867.3,817.4L867.3,817.4
			z"/>
	</g>
</g>
</svg>
